<svg width="761" height="769" viewBox="0 0 761 769" fill="none" xmlns="http://www.w3.org/2000/svg">
<g clip-path="url(#clip0_3163_2)">
<path d="M495.673 502.138C497.732 520.371 505.788 537.226 518.586 550.077C531.419 562.883 548.258 570.955 566.48 573.036C564.421 554.803 556.365 537.947 543.567 525.096C530.734 512.291 513.895 504.219 495.673 502.138Z" stroke="white" stroke-width="2.92741"/>
<path d="M494.273 651.588C512.506 649.528 529.361 641.472 542.212 628.674C555.018 615.841 563.089 599.003 565.17 580.78C546.937 582.839 530.082 590.896 517.231 603.694C504.425 616.527 496.354 633.365 494.273 651.588Z" stroke="white" stroke-width="2.92741"/>
<path d="M643.051 652.316C640.992 634.084 632.936 617.229 620.138 604.378C607.305 591.572 590.467 583.5 572.244 581.419C574.303 599.652 582.36 616.508 595.158 629.359C607.991 642.164 624.829 650.236 643.051 652.316Z" stroke="white" stroke-width="2.92741"/>
<path d="M643.78 503.538C625.548 505.597 608.693 513.653 595.842 526.451C583.036 539.284 574.964 556.123 572.883 574.345C591.116 572.286 607.972 564.23 620.822 551.432C633.628 538.599 641.7 521.76 643.78 503.538Z" stroke="white" stroke-width="2.92741"/>
<path d="M643.051 652.316C640.992 634.084 632.936 617.229 620.138 604.378C607.305 591.572 590.467 583.5 572.244 581.419C574.303 599.652 582.36 616.508 595.158 629.359C607.991 642.164 624.829 650.236 643.051 652.316Z" stroke="white" stroke-width="2.92741"/>
<path d="M665.674 430.043C657.733 440.063 652.281 451.723 649.742 464.119C637.298 466.657 625.592 472.131 615.542 480.112C625.561 488.053 637.222 493.505 649.618 496.043C652.156 508.488 657.63 520.194 665.61 530.244C673.552 520.224 679.004 508.563 681.542 496.168C693.987 493.63 705.692 488.156 715.742 480.175C705.723 472.234 694.062 466.782 681.667 464.243C679.129 451.799 673.655 440.093 665.674 430.043Z" stroke="white" stroke-width="2.92741"/>
<path d="M474.107 430.043C466.166 440.063 460.715 451.723 458.176 464.119C445.731 466.657 434.026 472.131 423.976 480.112C433.995 488.053 445.656 493.505 458.052 496.043C460.589 508.488 466.063 520.194 474.044 530.244C481.985 520.224 487.437 508.563 489.976 496.168C502.42 493.63 514.126 488.156 524.176 480.175C514.157 472.234 502.496 466.782 490.1 464.243C487.562 451.799 482.088 440.093 474.107 430.043Z" stroke="white" stroke-width="2.92741"/>
<path d="M665.674 623.187C657.733 633.206 652.281 644.866 649.742 657.262C637.298 659.8 625.592 665.274 615.542 673.255C625.561 681.196 637.222 686.648 649.618 689.187C652.156 701.631 657.629 713.337 665.61 723.387C673.552 713.368 679.004 701.707 681.542 689.311C693.987 686.773 705.692 681.299 715.742 673.319C705.723 665.377 694.062 659.925 681.667 657.386C679.129 644.942 673.655 633.236 665.674 623.187Z" stroke="white" stroke-width="2.92741"/>
<path d="M474.107 623.187C466.166 633.206 460.715 644.866 458.176 657.262C445.731 659.8 434.026 665.274 423.976 673.255C433.995 681.196 445.656 686.648 458.052 689.187C460.589 701.631 466.063 713.337 474.044 723.387C481.985 713.368 487.437 701.707 489.976 689.311C502.42 686.773 514.126 681.299 524.176 673.319C514.157 665.377 502.496 659.925 490.1 657.387C487.562 644.942 482.088 633.236 474.107 623.187Z" stroke="white" stroke-width="2.92741"/>
<path d="M453.931 652.316C451.872 634.084 443.816 617.229 431.018 604.378C418.185 591.572 401.346 583.5 383.124 581.419C385.183 599.652 393.239 616.508 406.038 629.359C418.87 642.164 435.709 650.236 453.931 652.316Z" stroke="white" stroke-width="2.92741"/>
<path d="M454.661 503.538C436.428 505.597 419.573 513.653 406.722 526.451C393.916 539.284 385.844 556.123 383.764 574.345C401.997 572.286 418.852 564.23 431.703 551.432C444.508 538.599 452.58 521.76 454.661 503.538Z" stroke="white" stroke-width="2.92741"/>
<path d="M453.931 652.316C451.872 634.084 443.816 617.229 431.018 604.378C418.185 591.572 401.346 583.5 383.124 581.419C385.183 599.652 393.239 616.508 406.038 629.359C418.87 642.164 435.709 650.236 453.931 652.316Z" stroke="white" stroke-width="2.92741"/>
<path d="M685.641 652.316C687.7 634.084 695.756 617.229 708.554 604.378C721.387 591.572 738.226 583.5 756.448 581.419C754.389 599.652 746.333 616.508 733.535 629.359C720.702 642.164 703.863 650.236 685.641 652.316Z" stroke="white" stroke-width="2.92741"/>
<path d="M684.912 503.538C703.144 505.597 719.999 513.653 732.85 526.451C745.656 539.284 753.728 556.123 755.809 574.345C737.576 572.286 720.72 564.23 707.87 551.432C695.064 538.599 686.992 521.76 684.912 503.538Z" stroke="white" stroke-width="2.92741"/>
<path d="M685.641 652.316C687.7 634.084 695.756 617.229 708.554 604.378C721.387 591.572 738.226 583.5 756.448 581.419C754.389 599.652 746.333 616.508 733.535 629.359C720.702 642.164 703.863 650.236 685.641 652.316Z" stroke="white" stroke-width="2.92741"/>
<path d="M495.673 695.427C497.732 713.66 505.788 730.515 518.586 743.366C531.419 756.172 548.258 764.244 566.48 766.324C564.421 748.091 556.365 731.236 543.567 718.385C530.734 705.579 513.895 697.508 495.673 695.427Z" stroke="white" stroke-width="2.92741"/>
<path d="M643.78 695.519C625.548 697.578 608.693 705.634 595.842 718.432C583.036 731.265 574.964 748.104 572.883 766.327C591.116 764.267 607.972 756.211 620.822 743.413C633.628 730.58 641.7 713.741 643.78 695.519Z" stroke="white" stroke-width="2.92741"/>
<path d="M757.059 766.324C755 748.092 746.944 731.236 734.146 718.386C721.313 705.58 704.474 697.508 686.252 695.427C688.311 713.66 696.367 730.515 709.165 743.366C721.998 756.172 738.837 764.244 757.059 766.324Z" stroke="white" stroke-width="2.92741"/>
<path d="M758.459 388.189C740.226 390.248 723.371 398.304 710.52 411.102C697.714 423.935 689.642 440.774 687.562 458.996C705.794 456.937 722.65 448.881 735.501 436.083C748.306 423.25 756.378 406.411 758.459 388.189Z" stroke="white" stroke-width="2.92741"/>
<path d="M494.273 459.115C512.506 457.056 529.361 449 542.212 436.202C555.018 423.369 563.089 406.531 565.17 388.308C546.937 390.367 530.082 398.423 517.231 411.222C504.425 424.054 496.354 440.893 494.273 459.115Z" stroke="white" stroke-width="2.92741"/>
<path d="M643.051 459.845C640.992 441.612 632.936 424.757 620.138 411.906C607.305 399.1 590.467 391.028 572.244 388.948C574.303 407.18 582.36 424.036 595.158 436.887C607.991 449.692 624.829 457.764 643.051 459.845Z" stroke="white" stroke-width="2.92741"/>
<path d="M380.265 766.326C398.498 764.267 415.353 756.211 428.204 743.413C441.01 730.58 449.081 713.742 451.162 695.519C432.929 697.578 416.074 705.634 403.223 718.432C390.417 731.265 382.346 748.104 380.265 766.326Z" stroke="white" stroke-width="2.92741"/>
<path d="M380.263 388.097C382.322 406.33 390.378 423.185 403.176 436.036C416.009 448.842 432.848 456.914 451.07 458.994C449.011 440.761 440.955 423.906 428.157 411.055C415.324 398.25 398.485 390.178 380.263 388.097Z" stroke="white" stroke-width="2.92741"/>
<path d="M495.88 117.953C497.939 136.185 505.995 153.04 518.793 165.891C531.626 178.697 548.465 186.769 566.687 188.85C564.628 170.617 556.572 153.762 543.774 140.911C530.941 128.105 514.102 120.033 495.88 117.953Z" stroke="white" stroke-width="2.92741"/>
<path d="M494.48 267.402C512.713 265.343 529.568 257.287 542.419 244.489C555.225 231.656 563.297 214.817 565.378 196.594C547.145 198.654 530.289 206.71 517.438 219.508C504.633 232.341 496.561 249.18 494.48 267.402Z" stroke="white" stroke-width="2.92741"/>
<path d="M643.259 268.131C641.2 249.898 633.144 233.043 620.346 220.192C607.513 207.386 590.674 199.314 572.452 197.234C574.511 215.467 582.567 232.322 595.365 245.173C608.198 257.978 625.037 266.05 643.259 268.131Z" stroke="white" stroke-width="2.92741"/>
<path d="M643.988 119.352C625.755 121.411 608.9 129.468 596.049 142.265C583.243 155.098 575.172 171.937 573.091 190.16C591.324 188.101 608.179 180.044 621.03 167.246C633.836 154.413 641.907 137.575 643.988 119.352Z" stroke="white" stroke-width="2.92741"/>
<path d="M643.259 268.131C641.2 249.898 633.144 233.043 620.346 220.192C607.513 207.386 590.674 199.314 572.452 197.234C574.511 215.467 582.567 232.322 595.365 245.173C608.198 257.978 625.037 266.05 643.259 268.131Z" stroke="white" stroke-width="2.92741"/>
<path d="M665.881 45.8577C657.94 55.8768 652.489 67.5374 649.95 79.9329C637.505 82.471 625.8 87.945 615.75 95.926C625.769 103.867 637.43 109.319 649.825 111.857C652.363 124.302 657.837 136.008 665.818 146.058C673.759 136.038 679.211 124.378 681.75 111.982C694.194 109.444 705.9 103.97 715.95 95.9895C705.931 88.0482 694.27 82.5962 681.874 80.0574C679.336 67.613 673.862 55.9075 665.881 45.8577Z" stroke="white" stroke-width="2.92741"/>
<path d="M474.315 45.8577C466.374 55.8768 460.922 67.5374 458.383 79.9329C445.939 82.471 434.233 87.945 424.183 95.926C434.202 103.867 445.863 109.319 458.259 111.857C460.797 124.302 466.271 136.008 474.251 146.058C482.193 136.038 487.645 124.378 490.184 111.982C502.628 109.444 514.333 103.97 524.383 95.9895C514.364 88.0482 502.704 82.5962 490.308 80.0574C487.77 67.613 482.296 55.9075 474.315 45.8577Z" stroke="white" stroke-width="2.92741"/>
<path d="M665.881 239.001C657.94 249.02 652.488 260.681 649.95 273.076C637.505 275.614 625.8 281.088 615.75 289.069C625.769 297.011 637.43 302.462 649.825 305.001C652.363 317.446 657.837 329.151 665.818 339.201C673.759 329.182 679.211 317.521 681.75 305.125C694.194 302.587 705.9 297.114 715.95 289.133C705.931 281.192 694.27 275.739 681.874 273.201C679.336 260.756 673.862 249.051 665.881 239.001Z" stroke="white" stroke-width="2.92741"/>
<path d="M474.315 239.001C466.374 249.02 460.922 260.681 458.383 273.076C445.939 275.614 434.233 281.088 424.183 289.069C434.202 297.011 445.863 302.462 458.259 305.001C460.797 317.446 466.271 329.151 474.251 339.201C482.193 329.182 487.645 317.521 490.184 305.125C502.628 302.587 514.333 297.114 524.383 289.133C514.364 281.192 502.704 275.739 490.308 273.201C487.77 260.756 482.296 249.051 474.315 239.001Z" stroke="white" stroke-width="2.92741"/>
<path d="M454.139 268.131C452.08 249.898 444.024 233.043 431.226 220.192C418.393 207.386 401.554 199.314 383.332 197.234C385.391 215.467 393.447 232.322 406.245 245.173C419.078 257.978 435.917 266.05 454.139 268.131Z" stroke="white" stroke-width="2.92741"/>
<path d="M454.868 119.352C436.636 121.411 419.78 129.468 406.93 142.265C394.124 155.098 386.052 171.937 383.971 190.16C402.204 188.101 419.059 180.044 431.91 167.246C444.716 154.413 452.788 137.575 454.868 119.352Z" stroke="white" stroke-width="2.92741"/>
<path d="M454.139 268.131C452.08 249.898 444.024 233.043 431.226 220.192C418.393 207.386 401.554 199.314 383.332 197.234C385.391 215.467 393.447 232.322 406.245 245.173C419.078 257.978 435.917 266.05 454.139 268.131Z" stroke="white" stroke-width="2.92741"/>
<path d="M685.849 268.131C687.908 249.898 695.964 233.043 708.762 220.192C721.595 207.386 738.433 199.314 756.656 197.234C754.597 215.467 746.54 232.322 733.742 245.173C720.909 257.978 704.071 266.05 685.849 268.131Z" stroke="white" stroke-width="2.92741"/>
<path d="M685.119 119.352C703.352 121.411 720.207 129.468 733.058 142.265C745.864 155.098 753.935 171.937 756.016 190.16C737.783 188.101 720.928 180.044 708.077 167.246C695.271 154.413 687.2 137.575 685.119 119.352Z" stroke="white" stroke-width="2.92741"/>
<path d="M685.849 268.131C687.908 249.898 695.964 233.043 708.762 220.192C721.595 207.386 738.433 199.314 756.656 197.234C754.597 215.467 746.54 232.322 733.742 245.173C720.909 257.978 704.071 266.05 685.849 268.131Z" stroke="white" stroke-width="2.92741"/>
<path d="M495.88 311.241C497.939 329.474 505.995 346.329 518.793 359.18C531.626 371.986 548.465 380.058 566.687 382.139C564.628 363.906 556.572 347.05 543.774 334.199C530.941 321.394 514.102 313.322 495.88 311.241Z" stroke="white" stroke-width="2.92741"/>
<path d="M643.988 311.333C625.755 313.392 608.9 321.448 596.049 334.246C583.243 347.079 575.172 363.918 573.091 382.141C591.324 380.081 608.179 372.025 621.03 359.227C633.836 346.394 641.907 329.555 643.988 311.333Z" stroke="white" stroke-width="2.92741"/>
<path d="M757.267 382.139C755.208 363.906 747.152 347.051 734.354 334.2C721.521 321.394 704.682 313.322 686.459 311.241C688.519 329.474 696.575 346.33 709.373 359.181C722.206 371.986 739.045 380.058 757.267 382.139Z" stroke="white" stroke-width="2.92741"/>
<path d="M758.666 4.00342C740.433 6.06247 723.578 14.1186 710.727 26.9165C697.922 39.7494 689.85 56.5882 687.769 74.8107C706.002 72.7516 722.857 64.6953 735.708 51.8972C748.514 39.0643 756.585 22.2257 758.666 4.00342Z" stroke="white" stroke-width="2.92741"/>
<path d="M494.48 74.9295C512.713 72.8705 529.568 64.8143 542.419 52.0165C555.225 39.1835 563.297 22.3448 565.378 4.12231C547.145 6.18137 530.289 14.2377 517.438 27.0357C504.633 39.8687 496.561 56.7073 494.48 74.9295Z" stroke="white" stroke-width="2.92741"/>
<path d="M643.259 75.6587C641.2 57.426 633.144 40.5709 620.346 27.7201C607.513 14.9142 590.674 6.84244 572.452 4.76172C574.511 22.9946 582.567 39.8499 595.365 52.7008C608.198 65.5064 625.037 73.578 643.259 75.6587Z" stroke="white" stroke-width="2.92741"/>
<path d="M380.473 382.141C398.705 380.081 415.56 372.025 428.411 359.227C441.217 346.395 449.289 329.556 451.37 311.333C433.137 313.392 416.282 321.449 403.431 334.247C390.625 347.08 382.553 363.918 380.473 382.141Z" stroke="white" stroke-width="2.92741"/>
<path d="M380.471 3.91138C382.53 22.1441 390.586 38.9992 403.384 51.8501C416.217 64.656 433.056 72.7277 451.278 74.8085C449.219 56.5755 441.163 39.7202 428.364 26.8693C415.532 14.0637 398.693 5.99209 380.471 3.91138Z" stroke="white" stroke-width="2.92741"/>
<path d="M117.07 117.953C119.129 136.185 127.186 153.04 139.983 165.891C152.816 178.697 169.655 186.769 187.878 188.85C185.819 170.617 177.762 153.762 164.964 140.911C152.131 128.105 135.293 120.033 117.07 117.953Z" stroke="white" stroke-width="2.92741"/>
<path d="M115.671 267.402C133.904 265.343 150.759 257.287 163.61 244.489C176.415 231.656 184.487 214.817 186.568 196.594C168.335 198.654 151.48 206.71 138.629 219.508C125.823 232.341 117.752 249.18 115.671 267.402Z" stroke="white" stroke-width="2.92741"/>
<path d="M264.449 268.131C262.39 249.898 254.334 233.043 241.536 220.192C228.703 207.386 211.865 199.314 193.642 197.234C195.701 215.467 203.757 232.322 216.556 245.173C229.389 257.978 246.227 266.05 264.449 268.131Z" stroke="white" stroke-width="2.92741"/>
<path d="M265.178 119.352C246.946 121.411 230.091 129.468 217.24 142.265C204.434 155.098 196.362 171.937 194.281 190.16C212.514 188.101 229.37 180.044 242.22 167.246C255.026 154.413 263.098 137.575 265.178 119.352Z" stroke="white" stroke-width="2.92741"/>
<path d="M264.449 268.131C262.39 249.898 254.334 233.043 241.536 220.192C228.703 207.386 211.865 199.314 193.642 197.234C195.701 215.467 203.757 232.322 216.556 245.173C229.389 257.978 246.227 266.05 264.449 268.131Z" stroke="white" stroke-width="2.92741"/>
<path d="M287.072 45.8577C279.131 55.8768 273.679 67.5374 271.14 79.9329C258.696 82.471 246.99 87.945 236.94 95.926C246.959 103.867 258.62 109.319 271.016 111.857C273.554 124.302 279.027 136.008 287.008 146.058C294.95 136.038 300.402 124.378 302.94 111.982C315.385 109.444 327.09 103.97 337.14 95.9895C327.121 88.0482 315.46 82.5962 303.065 80.0574C300.527 67.613 295.053 55.9075 287.072 45.8577Z" stroke="white" stroke-width="2.92741"/>
<path d="M95.5053 45.8577C87.5643 55.8768 82.1125 67.5374 79.5739 79.9329C67.1293 82.471 55.4236 87.945 45.3735 95.926C55.3929 103.867 67.0537 109.319 79.4494 111.857C81.9874 124.302 87.4611 136.008 95.4418 146.058C103.383 136.038 108.835 124.378 111.374 111.982C123.818 109.444 135.524 103.97 145.574 95.9895C135.555 88.0482 123.894 82.5962 111.498 80.0574C108.96 67.613 103.486 55.9075 95.5053 45.8577Z" stroke="white" stroke-width="2.92741"/>
<path d="M287.072 239.001C279.131 249.02 273.679 260.681 271.14 273.076C258.696 275.614 246.99 281.088 236.94 289.069C246.959 297.011 258.62 302.462 271.016 305.001C273.554 317.446 279.027 329.151 287.008 339.201C294.95 329.182 300.402 317.521 302.94 305.125C315.385 302.587 327.09 297.114 337.14 289.133C327.121 281.192 315.46 275.739 303.065 273.201C300.527 260.756 295.053 249.051 287.072 239.001Z" stroke="white" stroke-width="2.92741"/>
<path d="M95.5053 239.001C87.5642 249.02 82.1125 260.681 79.5739 273.076C67.1292 275.614 55.4236 281.088 45.3735 289.069C55.3929 297.011 67.0537 302.462 79.4494 305.001C81.9873 317.446 87.461 329.151 95.4418 339.201C103.383 329.182 108.835 317.521 111.374 305.125C123.818 302.587 135.524 297.114 145.574 289.133C135.555 281.192 123.894 275.739 111.498 273.201C108.96 260.756 103.486 249.051 95.5053 239.001Z" stroke="white" stroke-width="2.92741"/>
<path d="M75.3293 268.131C73.2702 249.898 65.214 233.043 52.4162 220.192C39.5832 207.386 22.7444 199.314 4.52197 197.234C6.58104 215.467 14.6374 232.322 27.4355 245.173C40.2684 257.978 57.107 266.05 75.3293 268.131Z" stroke="white" stroke-width="2.92741"/>
<path d="M76.0587 119.352C57.826 121.411 40.9709 129.468 28.12 142.265C15.3141 155.098 7.24236 171.937 5.16162 190.16C23.3946 188.101 40.2498 180.044 53.1007 167.246C65.9064 154.413 73.978 137.575 76.0587 119.352Z" stroke="white" stroke-width="2.92741"/>
<path d="M75.3293 268.131C73.2702 249.898 65.214 233.043 52.4162 220.192C39.5832 207.386 22.7444 199.314 4.52197 197.234C6.58104 215.467 14.6374 232.322 27.4355 245.173C40.2684 257.978 57.107 266.05 75.3293 268.131Z" stroke="white" stroke-width="2.92741"/>
<path d="M307.039 268.131C309.098 249.898 317.154 233.043 329.952 220.192C342.785 207.386 359.623 199.314 377.846 197.234C375.787 215.467 367.73 232.322 354.932 245.173C342.099 257.978 325.261 266.05 307.039 268.131Z" stroke="white" stroke-width="2.92741"/>
<path d="M306.31 119.352C324.542 121.411 341.397 129.468 354.248 142.265C367.054 155.098 375.126 171.937 377.206 190.16C358.974 188.101 342.118 180.044 329.267 167.246C316.462 154.413 308.39 137.575 306.31 119.352Z" stroke="white" stroke-width="2.92741"/>
<path d="M307.039 268.131C309.098 249.898 317.154 233.043 329.952 220.192C342.785 207.386 359.623 199.314 377.846 197.234C375.787 215.467 367.73 232.322 354.932 245.173C342.099 257.978 325.261 266.05 307.039 268.131Z" stroke="white" stroke-width="2.92741"/>
<path d="M117.07 311.241C119.129 329.474 127.185 346.329 139.983 359.18C152.816 371.986 169.655 380.058 187.878 382.139C185.819 363.906 177.762 347.05 164.964 334.199C152.131 321.394 135.293 313.322 117.07 311.241Z" stroke="white" stroke-width="2.92741"/>
<path d="M265.178 311.333C246.946 313.392 230.091 321.448 217.24 334.246C204.434 347.079 196.362 363.918 194.281 382.141C212.514 380.081 229.37 372.025 242.22 359.227C255.026 346.394 263.098 329.555 265.178 311.333Z" stroke="white" stroke-width="2.92741"/>
<path d="M378.457 382.139C376.398 363.906 368.342 347.051 355.544 334.2C342.711 321.394 325.872 313.322 307.65 311.241C309.709 329.474 317.765 346.33 330.563 359.181C343.396 371.986 360.235 380.058 378.457 382.139Z" stroke="white" stroke-width="2.92741"/>
<path d="M379.857 4.00342C361.624 6.06247 344.769 14.1186 331.918 26.9165C319.112 39.7494 311.04 56.5882 308.959 74.8107C327.192 72.7516 344.048 64.6953 356.899 51.8972C369.704 39.0643 377.776 22.2257 379.857 4.00342Z" stroke="white" stroke-width="2.92741"/>
<path d="M115.671 74.9295C133.904 72.8705 150.759 64.8143 163.61 52.0165C176.415 39.1835 184.487 22.3448 186.568 4.12231C168.335 6.18137 151.48 14.2377 138.629 27.0357C125.823 39.8687 117.752 56.7073 115.671 74.9295Z" stroke="white" stroke-width="2.92741"/>
<path d="M264.449 75.6587C262.39 57.426 254.334 40.5709 241.536 27.7201C228.703 14.9142 211.865 6.84244 193.642 4.76172C195.701 22.9946 203.758 39.8499 216.556 52.7008C229.389 65.5064 246.227 73.578 264.449 75.6587Z" stroke="white" stroke-width="2.92741"/>
<path d="M1.66309 382.141C19.8958 380.081 36.7509 372.025 49.6018 359.227C62.4077 346.395 70.4794 329.556 72.5602 311.333C54.3272 313.392 37.472 321.449 24.621 334.247C11.8154 347.08 3.74379 363.918 1.66309 382.141Z" stroke="white" stroke-width="2.92741"/>
<path d="M1.66113 3.91138C3.72017 22.1441 11.7763 38.9992 24.5742 51.8501C37.4072 64.656 54.2459 72.7277 72.4684 74.8085C70.4093 56.5755 62.353 39.7202 49.5549 26.8693C36.722 14.0637 19.8834 5.99209 1.66113 3.91138Z" stroke="white" stroke-width="2.92741"/>
<path d="M117.07 502.138C119.129 520.371 127.186 537.226 139.983 550.077C152.816 562.883 169.655 570.955 187.878 573.036C185.819 554.803 177.762 537.947 164.964 525.096C152.131 512.291 135.293 504.219 117.07 502.138Z" stroke="white" stroke-width="2.92741"/>
<path d="M115.671 651.588C133.904 649.528 150.759 641.472 163.61 628.674C176.415 615.841 184.487 599.003 186.568 580.78C168.335 582.839 151.48 590.896 138.629 603.694C125.823 616.527 117.752 633.365 115.671 651.588Z" stroke="white" stroke-width="2.92741"/>
<path d="M264.449 652.317C262.39 634.084 254.334 617.229 241.536 604.378C228.703 591.572 211.865 583.5 193.642 581.42C195.701 599.653 203.758 616.508 216.556 629.359C229.389 642.164 246.227 650.236 264.449 652.317Z" stroke="white" stroke-width="2.92741"/>
<path d="M265.178 503.538C246.946 505.597 230.091 513.653 217.24 526.451C204.434 539.284 196.362 556.123 194.281 574.345C212.514 572.286 229.369 564.23 242.22 551.432C255.026 538.599 263.098 521.76 265.178 503.538Z" stroke="white" stroke-width="2.92741"/>
<path d="M264.449 652.317C262.39 634.084 254.334 617.229 241.536 604.378C228.703 591.572 211.865 583.5 193.642 581.42C195.701 599.653 203.758 616.508 216.556 629.359C229.389 642.164 246.227 650.236 264.449 652.317Z" stroke="white" stroke-width="2.92741"/>
<path d="M287.072 430.043C279.131 440.063 273.679 451.723 271.14 464.119C258.696 466.657 246.99 472.131 236.94 480.112C246.959 488.053 258.62 493.505 271.016 496.043C273.554 508.488 279.027 520.194 287.008 530.244C294.95 520.224 300.402 508.563 302.94 496.168C315.385 493.63 327.09 488.156 337.14 480.175C327.121 472.234 315.46 466.782 303.065 464.243C300.527 451.799 295.053 440.093 287.072 430.043Z" stroke="white" stroke-width="2.92741"/>
<path d="M95.5054 430.043C87.5643 440.063 82.1125 451.723 79.5739 464.119C67.1293 466.657 55.4236 472.131 45.3735 480.112C55.3929 488.053 67.0537 493.505 79.4495 496.043C81.9874 508.488 87.4611 520.194 95.4418 530.244C103.383 520.224 108.835 508.563 111.374 496.168C123.818 493.63 135.524 488.156 145.574 480.175C135.555 472.234 123.894 466.782 111.498 464.243C108.96 451.799 103.486 440.093 95.5054 430.043Z" stroke="white" stroke-width="2.92741"/>
<path d="M287.072 623.187C279.131 633.206 273.679 644.866 271.14 657.262C258.696 659.8 246.99 665.274 236.94 673.255C246.959 681.196 258.62 686.648 271.016 689.187C273.554 701.631 279.027 713.337 287.008 723.387C294.95 713.368 300.402 701.707 302.94 689.311C315.385 686.773 327.09 681.299 337.14 673.319C327.121 665.377 315.46 659.925 303.065 657.386C300.527 644.942 295.053 633.236 287.072 623.187Z" stroke="white" stroke-width="2.92741"/>
<path d="M95.5054 623.187C87.5643 633.206 82.1125 644.866 79.5739 657.262C67.1293 659.8 55.4236 665.274 45.3735 673.255C55.3929 681.196 67.0537 686.648 79.4495 689.187C81.9874 701.631 87.461 713.337 95.4418 723.387C103.383 713.368 108.835 701.707 111.374 689.311C123.818 686.773 135.524 681.299 145.574 673.319C135.555 665.377 123.894 659.925 111.498 657.387C108.96 644.942 103.486 633.236 95.5054 623.187Z" stroke="white" stroke-width="2.92741"/>
<path d="M75.3293 652.317C73.2702 634.084 65.2141 617.229 52.4162 604.378C39.5832 591.572 22.7444 583.5 4.52197 581.42C6.58104 599.653 14.6374 616.508 27.4355 629.359C40.2684 642.164 57.107 650.236 75.3293 652.317Z" stroke="white" stroke-width="2.92741"/>
<path d="M76.0587 503.538C57.826 505.597 40.9709 513.653 28.12 526.451C15.3141 539.284 7.24236 556.123 5.16162 574.345C23.3946 572.286 40.2499 564.23 53.1008 551.432C65.9064 538.599 73.978 521.76 76.0587 503.538Z" stroke="white" stroke-width="2.92741"/>
<path d="M75.3293 652.317C73.2702 634.084 65.2141 617.229 52.4162 604.378C39.5832 591.572 22.7444 583.5 4.52197 581.42C6.58104 599.653 14.6374 616.508 27.4355 629.359C40.2684 642.164 57.107 650.236 75.3293 652.317Z" stroke="white" stroke-width="2.92741"/>
<path d="M307.039 652.317C309.098 634.084 317.154 617.229 329.952 604.378C342.785 591.572 359.623 583.5 377.846 581.42C375.787 599.653 367.73 616.508 354.932 629.359C342.099 642.164 325.261 650.236 307.039 652.317Z" stroke="white" stroke-width="2.92741"/>
<path d="M306.31 503.538C324.542 505.597 341.397 513.653 354.248 526.451C367.054 539.284 375.126 556.123 377.206 574.345C358.974 572.286 342.118 564.23 329.267 551.432C316.462 538.599 308.39 521.76 306.31 503.538Z" stroke="white" stroke-width="2.92741"/>
<path d="M307.039 652.317C309.098 634.084 317.154 617.229 329.952 604.378C342.785 591.572 359.623 583.5 377.846 581.42C375.787 599.653 367.73 616.508 354.932 629.359C342.099 642.164 325.261 650.236 307.039 652.317Z" stroke="white" stroke-width="2.92741"/>
<path d="M117.07 695.427C119.129 713.66 127.185 730.515 139.983 743.366C152.816 756.172 169.655 764.244 187.878 766.324C185.819 748.091 177.762 731.236 164.964 718.385C152.131 705.579 135.293 697.508 117.07 695.427Z" stroke="white" stroke-width="2.92741"/>
<path d="M265.178 695.519C246.946 697.578 230.091 705.634 217.24 718.432C204.434 731.265 196.362 748.104 194.281 766.326C212.514 764.267 229.369 756.211 242.22 743.413C255.026 730.58 263.098 713.741 265.178 695.519Z" stroke="white" stroke-width="2.92741"/>
<path d="M378.457 766.324C376.398 748.092 368.342 731.236 355.544 718.386C342.711 705.58 325.872 697.508 307.65 695.427C309.709 713.66 317.765 730.515 330.563 743.366C343.396 756.172 360.235 764.244 378.457 766.324Z" stroke="white" stroke-width="2.92741"/>
<path d="M379.857 388.189C361.624 390.248 344.769 398.304 331.918 411.102C319.112 423.935 311.04 440.774 308.959 458.997C327.192 456.937 344.048 448.881 356.899 436.083C369.704 423.25 377.776 406.411 379.857 388.189Z" stroke="white" stroke-width="2.92741"/>
<path d="M115.671 459.115C133.904 457.056 150.759 449 163.61 436.202C176.415 423.369 184.487 406.531 186.568 388.308C168.335 390.367 151.48 398.423 138.629 411.222C125.823 424.054 117.752 440.893 115.671 459.115Z" stroke="white" stroke-width="2.92741"/>
<path d="M264.449 459.845C262.39 441.612 254.334 424.757 241.536 411.906C228.703 399.1 211.865 391.028 193.642 388.948C195.701 407.18 203.758 424.036 216.556 436.887C229.389 449.692 246.227 457.764 264.449 459.845Z" stroke="white" stroke-width="2.92741"/>
<path d="M1.66309 766.327C19.8958 764.267 36.7509 756.211 49.6018 743.413C62.4077 730.581 70.4794 713.742 72.5602 695.519C54.3272 697.578 37.472 705.635 24.621 718.433C11.8154 731.266 3.74379 748.104 1.66309 766.327Z" stroke="white" stroke-width="2.92741"/>
<path d="M1.66113 388.097C3.72017 406.33 11.7763 423.185 24.5742 436.036C37.4071 448.842 54.2459 456.914 72.4684 458.994C70.4093 440.761 62.353 423.906 49.5549 411.055C36.722 398.25 19.8834 390.178 1.66113 388.097Z" stroke="white" stroke-width="2.92741"/>
</g>
<defs>
<clipPath id="clip0_3163_2">
<rect width="760.329" height="768.439" fill="white"/>
</clipPath>
</defs>
</svg>
