<svg width="2560" height="566" viewBox="0 0 2560 566" fill="none" xmlns="http://www.w3.org/2000/svg">
<g clip-path="url(#clip0_3159_2)">
<path d="M2557.54 500.52C2557.42 500.111 2557.18 499.293 2557.06 498.883C2556.85 499.078 2556.43 499.468 2556.23 499.657C2555.76 499.36 2555.33 499.073 2554.94 498.79C2554.9 499.223 2554.84 500.09 2554.81 500.524C2554.13 500.514 2553.49 500.509 2552.89 500.514C2552.51 499.837 2552.2 499.175 2551.87 498.507C2551.85 499.043 2551.8 500.114 2551.77 500.65C2551 500.119 2551 499.155 2550.99 498.351C2550.67 498.546 2550.03 498.94 2549.71 499.135C2549.43 499.685 2549.17 500.236 2548.94 500.796C2548.83 500.353 2548.61 499.466 2548.49 499.023C2548.2 499.627 2547.97 500.246 2547.74 500.864C2547.41 500.012 2546.86 499.364 2546.19 498.823C2546.17 499.247 2546.14 500.099 2546.13 500.528C2544.83 500.552 2543.54 500.572 2542.28 500.577C2542.22 502.092 2542.18 503.611 2542.12 505.136C2541.01 504.98 2539.87 504.815 2539 504.113C2538.49 504.293 2538.02 504.478 2537.58 504.673C2536.84 504.512 2536.12 504.352 2535.43 504.201C2535.29 503.241 2535.11 502.287 2535 501.342C2532.46 501.152 2529.9 501.137 2527.41 500.694C2527.27 500.45 2527 499.959 2526.87 499.715C2526.74 500.066 2526.64 500.421 2526.57 500.782C2523.41 500.797 2520.27 500.728 2517.13 500.772C2517.12 498.751 2514.7 498.035 2514.54 496.048C2513.99 496.433 2513.47 496.818 2512.97 497.202C2512.87 497.124 2512.66 496.978 2512.56 496.9C2512.56 496.286 2512.56 495.673 2512.61 495.069C2512.14 495.113 2511.21 495.201 2510.74 495.244C2510.53 495.429 2510.12 495.794 2509.91 495.975C2509.87 495.702 2509.79 495.147 2509.75 494.874C2509.28 495.069 2508.84 495.273 2508.43 495.483C2508.32 495.196 2508.1 494.621 2508 494.338C2505.78 494.538 2503.47 495.108 2501.39 494.07C2501.22 494.133 2500.87 494.26 2500.7 494.323C2499.82 492.95 2498.4 492.18 2496.92 491.673C2496.88 490.655 2496.86 489.642 2496.88 488.639C2495.17 487.572 2493.35 486.447 2491.28 487.188C2489.62 486.851 2482.21 486.479 2479.22 487.529C2478.72 488.191 2478.47 490.013 2477.4 489.039C2476.8 488.118 2477.12 487.037 2477.26 486.058C2476.93 483.667 2477.12 481.221 2477.36 478.83C2477.2 478.479 2476.89 477.773 2476.74 477.422C2476.94 477.198 2477.35 476.76 2477.55 476.536C2477.31 476.005 2477.1 475.479 2476.91 474.958C2477.09 474.714 2477.44 474.232 2477.61 473.989C2477.41 473.76 2477.02 473.302 2476.82 473.068C2477.09 472.581 2477.38 472.094 2477.7 471.617C2477.51 471.427 2477.12 471.042 2476.92 470.852C2476.85 468.261 2477.19 465.67 2476.95 463.083C2475.5 463.346 2472.96 462.041 2472.52 464.018C2464.18 462.507 2467.34 462.148 2464.71 462.581C2464.57 462.352 2464.3 461.894 2464.16 461.665C2463.91 461.86 2463.42 462.254 2463.17 462.449C2462.58 462.439 2462.03 462.439 2461.51 462.449C2459.92 464.875 2456.65 464.207 2454.2 464.285C2454.11 465.663 2454.07 467.047 2454.02 468.43C2452.77 468.381 2451.54 468.318 2450.33 468.221C2449.75 471.401 2449.98 474.67 2450.05 477.889C2448.98 477.806 2447.95 477.738 2446.93 477.665C2446.6 481.683 2446.62 485.726 2446.51 489.759C2445.26 489.71 2444.02 489.71 2442.82 489.783C2442.75 492.496 2442.7 495.209 2442.61 497.927C2437.4 497.594 2439.28 496.213 2435.65 497.196C2434.71 497.478 2433.79 497.181 2432.9 497.05C2432.64 497.406 2432.42 497.766 2432.23 498.136C2431.66 498.438 2431.12 498.755 2430.61 499.081C2430.47 498.818 2430.2 498.292 2430.06 498.029C2429.71 498.599 2429.33 499.13 2428.92 499.617C2428.89 499.344 2428.85 498.794 2428.83 498.516C2428.68 498.545 2428.39 498.594 2428.24 498.623C2427.09 498.535 2425.94 498.608 2424.84 498.813C2424.82 497.605 2424.81 496.402 2424.8 495.209C2424.56 495.628 2424.35 496.056 2424.18 496.49C2421.05 494.537 2417.1 496.076 2413.95 494.211C2413.22 494.703 2412.48 495.161 2411.83 495.706C2411.5 497.532 2411.73 499.408 2411.69 501.259C2411.63 511.775 2410.8 517.532 2410.8 517.532C2409.61 517.693 2408.45 517.926 2407.36 518.316C2407.22 518.136 2406.93 517.766 2406.79 517.581C2406.55 517.542 2406.07 517.469 2405.82 517.435C2405.43 516.812 2405.11 516.174 2404.69 515.628C2404.04 515.638 2403.42 515.686 2402.84 515.76C2401.98 517.299 2400.25 516.944 2398.8 516.754C2398.09 515.653 2396.89 515.283 2395.74 514.923C2394.7 512.954 2396.68 512.985 2392.9 511.528C2392.92 510.159 2394.08 508.031 2392.4 507.237C2384.32 502.982 2391.86 507.278 2382.88 503.336C2382.78 503.107 2382.58 502.644 2382.48 502.415C2381.96 502.249 2381.47 502.094 2381.01 501.943C2380.98 501.203 2380.95 500.467 2380.99 499.741C2380.82 499.512 2380.48 499.059 2380.31 498.835C2380.52 498.621 2380.94 498.197 2381.14 497.988C2380.49 492.739 2380.97 497.117 2381.22 486.381C2380.13 486.269 2379.08 486.147 2378.04 486.016C2377.86 485.315 2377.72 484.618 2377.62 483.931C2375.63 482.816 2373.12 481.822 2371.12 483.424C2370.87 483.312 2370.37 483.093 2370.12 482.986C2368.23 483.473 2366.29 483.473 2364.37 483.493C2364.1 483.094 2363.87 482.709 2363.67 482.324C2363.59 482.607 2363.43 483.176 2363.35 483.464C2362.36 483.479 2361.38 483.493 2360.45 483.527C2359.96 480.017 2360.5 465.186 2360.7 461.522C2359.82 461.444 2358.94 461.361 2358.13 461.298C2358.14 461.103 2358.18 460.714 2358.19 460.519C2357.97 460.699 2357.51 461.06 2357.29 461.24C2357.2 460.461 2357.14 459.686 2357.12 458.917C2355.57 458.698 2353.86 458.693 2352.73 457.466C2351.36 457.349 2349.99 457.451 2348.77 458.065C2346.96 458.898 2344.94 458.182 2343.07 458.557C2342.89 458.499 2342.54 458.377 2342.36 458.313C2341.3 458.576 2340.18 458.669 2339.14 458.746C2339.08 459.52 2339.05 460.295 2339.04 461.079C2337.1 459.472 2337.81 427.611 2337.8 426.61C2338.07 426.61 2338.6 426.62 2338.86 426.62C2337.61 426.031 2336.34 426.575 2338.83 423.732C2338.92 423.157 2339.08 422.592 2339.25 422.027C2338.34 420.907 2337.63 419.64 2337.38 418.223C2337.87 418.087 2338.38 417.96 2338.93 417.838C2338.1 417.414 2337.76 416.611 2337.5 415.807C2338.28 415.32 2338.95 414.672 2339.39 413.834C2336.71 413.629 2334.06 413.235 2331.4 412.928C2331.72 412.231 2332.04 411.54 2332.42 410.863C2332.33 410.678 2332.16 410.313 2332.08 410.128C2332.68 410.055 2333.3 409.982 2333.96 409.919C2333.97 409.646 2334 409.091 2334.01 408.818C2332.58 408.414 2331.12 408.122 2329.67 408.092C2329.47 407.975 2329.06 407.736 2328.85 407.62C2328.72 395.856 2329.06 394.051 2330.56 392.506C2330.37 391.912 2330.21 391.327 2330.08 390.748C2330.59 389.748 2346.48 362.194 2348.14 360.565C2347.57 360.131 2347.11 359.401 2346.34 359.576C2343.63 364.827 2339.73 369.807 2338.07 374.017C2337.68 374.412 2337.32 374.811 2337 375.215C2336.99 375.648 2337.03 376.097 2337.09 376.545C2335.34 377.714 2329.25 388.363 2328.16 390.548C2327.82 390.441 2327.12 390.222 2326.77 390.115C2326.79 389.55 2326.87 388.995 2326.95 388.44C2325.49 387.208 2325.05 385.318 2324.44 383.608C2323.82 383.798 2323.24 383.993 2322.68 384.197C2323.35 386.358 2322.96 384.37 2324.46 389.691C2323.64 389.701 2322.86 389.715 2322.09 389.735C2322.01 391.011 2322.09 392.287 2322.32 393.549C2323.49 393.846 2324.69 394.07 2325.82 394.567C2326.62 396.038 2326.32 397.801 2326.38 399.418C2326.66 408.621 2325.98 406.803 2324.34 407.893C2321.49 407.172 2318.51 408.38 2315.61 407.805C2315.65 407.455 2315.68 407.105 2315.69 406.755C2315.3 406.829 2314.88 406.871 2314.46 406.891C2314.47 407.174 2314.49 407.458 2314.52 407.741C2311.75 407.025 2308.87 407.756 2306.14 406.903C2304.21 407.171 2302.3 407.867 2300.34 407.458C2299.96 406.932 2299.66 406.382 2299.45 405.807C2292.97 408.774 2300.74 410.746 2297.99 413.152C2298.15 415.319 2299 417.769 2297.78 419.752C2298.09 420.112 2298.44 420.478 2298.82 420.853C2298.43 421.476 2298.1 422.11 2297.76 422.743C2298.04 423.542 2298.29 424.336 2298.61 425.149C2298.35 424.993 2297.83 424.686 2297.57 424.53C2297.59 424.793 2297.61 425.319 2297.63 425.582C2297.88 425.752 2298.38 426.098 2298.63 426.269C2298.33 426.81 2298.04 427.35 2297.79 427.896C2297.96 428.101 2298.3 428.505 2298.48 428.709C2298.47 429.045 2298.45 429.722 2298.44 430.063C2298.14 430.136 2297.52 430.287 2297.22 430.36C2297.23 433.458 2297.22 436.555 2297.21 439.658C2295.85 439.648 2294.51 439.648 2293.18 439.639C2293.16 440.643 2292.96 456.552 2292.25 458.152C2291.63 458.162 2291.05 458.176 2290.5 458.196C2290.19 458.629 2289.92 459.073 2289.67 459.521C2288.2 459.613 2286.74 459.633 2285.3 459.609C2285.14 458.245 2285.05 456.886 2285.06 455.527C2282.71 454.119 2279.85 453.993 2277.22 453.652C2277.23 452.848 2277.3 452.054 2277.38 451.27C2277.13 451.134 2276.63 450.861 2276.38 450.724C2276.5 448.41 2274.74 446.74 2274.01 444.689C2266.81 444.381 2269.64 445.336 2266.3 445.619C2262.71 445.887 2259.17 444.65 2255.6 445.22C2253.5 445.566 2251.39 445.201 2249.32 445.001C2248.66 448.043 2247.6 446.534 2247.5 451.07C2246.87 451.104 2246.29 451.148 2245.74 451.202C2244.85 452.795 2242.85 451.762 2241.49 452.512C2240.33 452.658 2238.67 454.1 2237.94 452.692C2236.01 453.627 2233.78 452.926 2231.81 452.517C2221.63 452.445 2223.13 453.218 2220.08 454.105C2220.06 455.396 2220.06 456.691 2220.07 457.987C2218.92 458.055 2217.76 458.045 2216.76 458.601C2217.56 458.83 2218.46 459.064 2219.33 459.283C2219.36 463.287 2218.65 467.247 2218.76 471.26C2217.76 472.804 2218.08 474.684 2218.09 476.423C2217.62 476.233 2217.18 476.053 2216.76 475.878C2216.3 477.86 2216.23 480.237 2214.44 481.557C2214.38 481.08 2214.26 480.12 2214.2 479.638C2213.72 480.31 2213.25 480.977 2212.7 481.562C2212.52 480.875 2212.36 480.188 2212.24 479.511C2212.13 479.896 2211.91 480.67 2211.8 481.055C2210.92 481.099 2210.08 481.001 2209.29 481.264C2208.11 482.312 2209.27 491.647 2209.09 496.831C2205.43 497.079 2201.76 496.432 2198.13 496.052C2196.3 496.554 2194.44 495.984 2192.6 496.076C2192.5 493.811 2193.04 491.459 2192.52 489.257C2191.32 488.21 2189.48 488.439 2188.01 488.195C2187.87 487.148 2187.75 486.105 2187.63 485.068C2185.44 483.865 2183.63 482.097 2181.54 480.743C2181.39 480.982 2181.1 481.464 2180.95 481.703C2172.16 480.196 2167.36 483.732 2163.54 484.25C2163.52 483.88 2163.5 483.135 2163.49 482.764C2163.35 483.061 2163.07 483.655 2162.92 483.952C2162.68 483.699 2162.18 483.187 2161.94 482.934C2162.09 484.303 2162.25 485.681 2162.32 487.069C2160.96 487.118 2159.63 487.249 2158.33 487.507C2158.88 488.983 2158.29 490.668 2159.08 492.051C2158.46 492.772 2158.22 493.619 2158.85 494.442C2157.96 496.395 2159.16 498.558 2158.3 500.506C2158.43 500.667 2158.7 500.998 2158.83 501.159C2158.26 501.987 2158.31 502.908 2158.72 503.794C2158.58 504.033 2158.32 504.51 2158.19 504.749C2158.34 505.314 2158.53 505.884 2158.73 506.463C2158.11 506.078 2157.58 505.713 2157.02 505.338C2156.67 505.367 2155.97 505.426 2155.62 505.455C2155.46 505.343 2155.13 505.119 2154.96 505.007C2154.22 505.796 2153.3 506.03 2152.32 505.577C2149.65 506.483 2146.97 505.309 2144.3 505.655C2144.53 502.854 2144.48 500.044 2144.51 497.239C2142.73 497.015 2140.94 496.874 2139.17 496.84C2139.04 495.262 2138.93 493.684 2138.85 492.111C2136.97 492.062 2135.09 491.941 2133.33 491.317C2131.33 491.473 2129.16 492.023 2127.35 490.913C2127.08 491.045 2126.54 491.303 2126.28 491.429C2125.76 491.361 2125.26 491.302 2124.79 491.249C2125.38 487.956 2124.63 484.63 2125.03 481.328C2124.92 479.497 2125.63 477.256 2124.23 475.78C2123.88 475.877 2123.2 476.077 2122.86 476.174C2122.12 474.265 2122.89 471.903 2121.24 470.397C2120.55 470.324 2119.94 470.261 2119.31 470.188C2119.42 466.52 2119.36 462.848 2119.51 459.185C2118.23 458.328 2116.68 458.372 2115.24 458.362C2114.89 451.757 2115.46 445.167 2115.3 438.563C2112.12 436.82 2112.91 437.396 2113.17 434.978C2112.42 434.135 2111.83 433.176 2111.57 432.09C2111.55 432.358 2111.51 432.899 2111.48 433.171C2109.78 433.117 2108.1 432.971 2106.44 432.733C2105.4 430.725 2106.73 429.039 2094.71 430.166C2094.66 429.874 2094.57 429.294 2094.52 429.002C2094.25 429.372 2094.01 429.752 2093.79 430.137C2092.82 430.156 2091.88 430.181 2090.96 430.215C2090.96 431.238 2090.98 432.261 2091.04 433.293C2089.64 433.327 2088.25 433.371 2086.88 433.444C2086.24 433.244 2085.62 433.054 2085.03 432.874C2084.83 433.059 2084.41 433.434 2084.2 433.619C2083.37 433.575 2082.57 433.541 2081.81 433.492C2081.24 432.591 2080.28 433.263 2079.53 433.37C2078.8 433.614 2078.08 433.428 2077.41 433.321C2076.29 433.569 2075.17 433.755 2074.06 433.871C2073.95 440.071 2073.6 446.272 2073.71 452.477C2073.62 452.263 2073.43 451.829 2073.33 451.615C2072.16 451.683 2070.82 451.298 2069.85 452.078C2069.87 454.192 2070.08 456.301 2069.95 458.42C2068.84 458.795 2067.75 459.18 2066.67 459.55C2066.56 463.169 2066.62 466.793 2066.59 470.421C2064.77 470.363 2062.96 470.343 2061.16 470.358C2061.12 475.857 2061.03 481.356 2060.94 486.855C2060.39 486.11 2060 485.267 2059.72 484.415C2058.61 484.361 2057.53 484.298 2056.48 484.23C2056.45 483.84 2056.39 483.061 2056.36 482.671C2056.89 482.544 2057.45 482.418 2058.03 482.296C2057.47 482.125 2056.93 481.97 2056.42 481.814C2055.7 445.91 2056.51 427.537 2056.61 415.544C2046.16 413.999 2044.27 415.645 2042.01 413.489C2041.36 413.64 2040.71 413.499 2040.26 413.051L2040.15 413.816C2039.91 413.636 2039.44 413.28 2039.21 413.1C2036.93 413.665 2034.55 413.928 2032.26 413.348C2031.97 413.363 2031.39 413.402 2031.1 413.416C2031.01 413.051 2030.84 412.32 2030.75 411.95C2030.67 412.32 2030.51 413.056 2030.43 413.421C2027.35 413.674 2024.24 413.479 2021.17 413.82C2021.34 413.518 2021.7 412.919 2021.87 412.617C2020.21 411.623 2018.32 411.877 2016.52 412.062C2016.39 411.814 2016.12 411.327 2015.98 411.078C2015.8 411.453 2015.63 411.828 2015.49 412.213C2014.23 411.969 2012.85 411.872 2011.98 410.844C2011.89 411.175 2011.71 411.838 2011.63 412.169C2011.01 412.481 2010.42 412.797 2009.85 413.119C2010.21 404.478 2010.3 395.823 2010.33 387.173C2008.96 387.183 2007.73 386.735 2007.07 385.493C2003.08 384.634 1993.51 384.009 1992.1 384.621C1991.97 383.506 1991.89 382.4 1991.78 381.294C1991.56 382.137 1991.38 382.989 1991.21 383.841C1967.47 384.168 1970.13 384.517 1969.4 385.848C1966.03 386.137 1966.79 384.748 1966.75 394.625C1965.08 394.713 1963.1 394.084 1961.81 395.453C1962.68 395.521 1963.57 395.58 1964.48 395.633C1965.02 398.297 1963.69 400.757 1963.49 403.363C1963.64 404.73 1963.83 412.699 1963.13 415.691C1963.3 415.905 1963.66 416.334 1963.84 416.548C1962.68 421.723 1964.29 419.475 1963.19 423.328C1963.37 423.703 1963.15 464.267 1962.78 465.24C1962.96 466.321 1963.13 467.407 1963.25 468.508C1960.84 468.727 1958.41 468.761 1956.05 468.269C1956.41 463.491 1956.28 466.866 1955.8 454.018C1955.77 458.723 1955.45 463.423 1955.52 468.128C1954.18 467.933 1952.85 467.733 1951.53 467.548C1951.32 466.769 1951.11 465.994 1950.91 465.225C1950.36 465.074 1949.83 464.928 1949.33 464.787L1948.2 440.77C1948 441.393 1947.83 442.027 1947.69 442.665C1947.9 443.444 1947.7 444.141 1947.01 444.628C1947.18 444.798 1947.51 445.139 1947.67 445.31C1947.02 452.041 1946.52 458.797 1945.61 465.504C1944.77 465.158 1944.04 465.066 1943.38 465.67C1942.83 465.461 1942.31 465.261 1941.81 465.066C1941.94 464.861 1942.2 464.462 1942.33 464.257H1941.41C1941.47 464.525 1941.6 465.056 1941.67 465.324C1939.52 466.016 1938.27 463.96 1936.56 463.166C1937.24 460.438 1937.35 457.497 1936.43 454.813C1932.6 452.722 1934.53 453.154 1933.23 450.074C1931.08 446.135 1930.81 443.213 1928.54 438.195C1926.28 438.054 1924.03 438.102 1921.8 438.336C1921.66 437.81 1921.76 437.089 1921.1 436.963C1921.08 437.431 1921.04 438.366 1921.02 438.833C1917.51 437.658 1912.82 439.477 1903.76 438.458C1903.67 438.195 1903.48 437.669 1903.38 437.406C1903.35 437.654 1903.27 438.146 1903.23 438.395C1900.04 438.069 1896.84 438.147 1893.65 438.273C1893.56 438.555 1893.39 439.116 1893.3 439.398C1891.56 439.398 1889.83 439.466 1888.13 439.651C1887.13 443.129 1885.62 446.431 1884.62 449.913C1884.34 449.937 1883.77 449.991 1883.49 450.02C1883.46 451.106 1883.45 452.197 1883.47 453.298C1882.77 453.059 1882.1 452.762 1881.38 452.923C1881.9 453.42 1882.33 454.004 1882.66 454.681C1882.3 454.7 1881.58 454.739 1881.21 454.764C1880.8 455.149 1880.41 455.543 1880.05 455.938C1880.05 458.534 1880.01 461.135 1880.04 463.731C1879.24 464.106 1878.46 464.491 1877.71 464.88C1877.8 467.525 1877.62 470.174 1877.63 472.824C1876.89 472.99 1876.19 473.121 1875.55 473.438C1875.25 474.967 1875.41 476.536 1875.42 478.085C1873.74 478.178 1872.22 477.574 1870.9 476.619C1870.67 476.819 1870.22 477.223 1870 477.423C1868.88 476.994 1868.95 475.704 1868.75 474.744C1866.8 473.813 1867.52 475.925 1867.58 456.932L1867.91 418.396C1866.42 418.026 1864.93 417.738 1863.43 417.607C1863.2 417.057 1863 416.511 1862.83 415.97C1861.69 416.004 1860.59 416.111 1859.52 416.374C1859.53 416.048 1859.56 415.39 1859.57 415.064C1859.2 415.064 1858.46 415.069 1858.09 415.074C1857.89 413.306 1858.04 411.499 1857.62 409.77C1856.79 409.457 1842.93 409.461 1842.05 409.458C1841.65 409.877 1841.27 410.296 1840.92 410.724C1840.99 412.438 1840.84 414.241 1839.69 415.609C1839.62 416.189 1839.59 416.773 1839.58 417.367C1835.41 417.572 1831.24 417.625 1827.08 417.908C1825.19 420.467 1825.18 414.058 1825.23 463.302C1824.3 463.268 1823.41 463.248 1822.53 463.224C1822.46 460.492 1822.48 457.764 1822.54 455.036L1822.08 455.051C1822.18 457.715 1822.19 460.389 1822.15 463.058C1818.94 462.946 1815.73 462.732 1812.55 462.415C1810.99 464.977 1809.05 467.271 1807.36 469.736C1803.29 470.99 1793.68 469.627 1789.01 470.018C1788.97 473.252 1788.94 476.486 1788.95 479.725C1786.78 480.236 1784.62 480.792 1782.47 481.362C1782.47 480.631 1782.5 479.911 1782.54 479.199C1780.36 479.116 1778.2 479.126 1776.04 479.033C1776.16 477.119 1776.29 475.2 1776.25 473.281C1773.19 473.31 1770.14 472.969 1767.08 473.023C1767.57 471.903 1767.55 470.705 1767.12 469.579C1767.98 466.408 1766.94 463.106 1767.48 459.901C1767.83 458.04 1767.62 456.16 1767.25 454.329C1767.61 452.931 1767.61 451.489 1767.15 450.126C1767.8 446.703 1768.03 432.952 1767.24 429.962C1767.98 429.64 1768.75 429.324 1769.53 429.017C1770.88 415.52 1771.29 419.001 1753.39 417.118C1751.47 416.991 1753.14 413.933 1751.4 413.514C1750.45 413.223 1735.73 414.157 1732.51 414.337C1732.35 415.209 1732.21 416.09 1732.11 416.977C1731.11 417.089 1710.09 418.663 1709.22 418.044C1709.09 417.143 1709.02 416.242 1708.84 415.365C1708.46 416.339 1708.33 417.381 1708.27 418.424C1707.87 418.497 1707.07 418.648 1706.67 418.726C1706.67 418.137 1706.65 416.958 1706.64 416.369C1706.34 417.104 1706.13 417.859 1705.88 418.605C1703.14 418.24 1700.41 418.693 1697.68 418.756C1697.33 421.912 1697.29 425.093 1697.51 428.259C1697.51 428.259 1690.33 427.888 1668.44 429.374C1668.4 429.052 1668.32 428.4 1668.28 428.074C1667.84 429.267 1668.39 431.532 1666.57 431.493C1665.81 429.744 1665.23 427.928 1664.75 426.092C1661.37 428.88 1663.27 426.92 1663.94 435.609C1663.72 435.921 1663.52 436.237 1663.34 436.559C1662.23 436.052 1661.12 436.32 1660.09 436.788C1660.48 436.881 1661.26 437.061 1661.65 437.148C1660.55 437.635 1659.44 438.049 1658.34 438.483C1660 439.652 1661.95 438.181 1663.72 439.141C1660.4 439.945 1656.92 439.94 1653.55 440.403C1653.06 439.794 1652.6 439.19 1652.16 438.586C1653.31 437.724 1653.03 436.443 1652.59 435.284C1652.06 435.211 1651.54 435.138 1651.05 435.07C1651.26 434.32 1651.16 433.244 1652.15 433.073C1653.01 432.674 1654.71 432.065 1653.85 430.828C1652.73 430.088 1651.04 430.01 1650.95 428.339C1651.98 427.618 1653.65 426.907 1653.04 425.329C1652.25 424.555 1651.3 423.936 1650.82 422.918C1651.83 422.543 1652.92 422.285 1653.9 421.764C1653.99 421.029 1654.02 420.288 1654.1 419.558C1653.4 419.504 1652.72 419.451 1652.07 419.407C1651.71 418.798 1651.36 418.199 1651.04 417.605C1651.79 417.055 1652.56 416.519 1653.36 415.993C1653.11 414.8 1652.93 413.48 1651.68 412.959C1651.65 412.633 1651.59 411.99 1651.57 411.668C1652.38 411.463 1653.21 411.269 1654.06 411.084C1654 410.183 1654.15 409.233 1653.78 408.4C1652.98 407.952 1652.04 407.913 1651.21 407.703C1651.37 406.612 1652.21 406.003 1653.16 405.579C1653.18 404.751 1653.19 403.928 1653.2 403.11C1652.4 402.623 1650.9 402.214 1651.41 400.982C1651.37 399.511 1653.05 400.013 1654.02 399.823C1654.05 398.863 1654.07 397.914 1654.11 396.964C1653.39 396.828 1652.67 396.862 1652.02 396.594C1651.41 395.79 1651.68 394.68 1651.56 393.75C1652.14 393.472 1652.76 393.205 1653.38 392.937C1653.39 391.919 1653.51 390.891 1653.34 389.893C1652.68 389.318 1651.81 389.104 1651.06 388.753C1650.82 389.172 1650.61 389.596 1650.42 390.024C1648.46 387.903 1645.78 387.64 1647.9 384.949C1647.98 384.691 1648.14 384.175 1648.22 383.916C1647.8 383.565 1647.41 383.224 1647.03 382.883C1646.99 382.284 1646.98 381.69 1646.99 381.105C1648.03 380.866 1647.97 379.917 1647.99 379.084C1647.54 378.602 1647.17 378.081 1646.9 377.516C1647.18 376.776 1647.7 376.167 1648.17 375.534C1647.72 374.696 1647.27 373.873 1646.8 373.069C1646.84 372.782 1646.9 372.207 1646.93 371.92C1647.2 371.827 1647.74 371.638 1648.01 371.545C1648 371.053 1648.01 370.571 1648.04 370.094C1647.5 369.451 1646.57 368.867 1646.77 367.912C1647.05 367.703 1647.62 367.284 1647.91 367.074C1647.93 366.485 1647.96 365.9 1648.02 365.321C1647.73 365.131 1647.16 364.751 1646.87 364.561C1646.93 364.196 1647.05 363.47 1647.12 363.105C1647.47 362.701 1647.82 362.282 1648.18 361.858C1647.8 360.709 1647.13 359.681 1646.81 358.522C1647.21 358.415 1648 358.205 1648.4 358.098C1647.24 353.805 1645.82 355.407 1648.17 353.383C1648.16 352.818 1648.17 352.258 1648.2 351.703C1647.9 351.586 1647.3 351.357 1647 351.245C1646.96 350.539 1646.94 349.842 1646.94 349.151C1647.29 349.19 1648 349.268 1648.36 349.307C1648.22 347.846 1647.41 346.614 1646.72 345.381C1648.07 345.05 1648.35 343.886 1648.26 342.649C1647.8 342.405 1647.36 342.162 1646.95 341.918C1646.89 341.324 1646.86 340.73 1646.84 340.145C1647.19 340.16 1647.86 340.199 1648.2 340.218C1648.22 335.927 1648.32 331.641 1648.46 327.355C1645.41 326.936 1642.22 327.15 1639.35 325.894C1639.66 325.811 1640.25 325.65 1640.56 325.573C1640.58 325.164 1640.62 324.346 1640.64 323.936C1636.9 323.824 1633.16 324.204 1629.44 323.78C1627.92 323.546 1626.85 325.212 1625.32 324.925C1621.68 324.589 1618.06 324.019 1614.41 323.888C1614.41 323.718 1614.4 323.372 1614.4 323.201C1614.26 323.342 1614 323.62 1613.87 323.761C1612.6 323.532 1611.36 323.352 1610.12 323.196C1610.11 323.707 1610.1 324.721 1610.1 325.232C1609.64 324.911 1609.23 324.56 1608.87 324.18C1608.61 324.477 1608.39 324.784 1608.2 325.105C1607.39 324.832 1606.59 324.55 1605.82 324.267C1605.19 324.613 1604.59 324.964 1604 325.314C1603.99 324.637 1604 323.965 1604.04 323.298C1601.71 322.85 1599.45 323.551 1597.16 323.717C1597.53 274.914 1598.46 245.513 1597.48 243.191C1594.61 242.733 1591.61 242.11 1588.77 243.074C1582.95 241.636 1563.13 240.233 1560.3 238.364C1557.19 237.716 1553.9 237.122 1550.78 237.989C1549.78 238.012 1540.74 237.356 1538.6 237.828C1537.28 238.169 1535.95 237.872 1534.66 237.648C1532.85 237.215 1531.11 238.398 1529.32 237.921C1527.37 237.473 1525.39 237.765 1523.48 238.179C1520.32 237.315 1509.56 237.787 1504.69 238.987C1504.47 247.178 1504.75 342.771 1504.11 346.102C1500.37 346.156 1496.61 345.746 1492.89 346.238C1492.69 359.569 1492.91 372.9 1492.8 386.231C1492.36 386.767 1491.94 387.317 1491.59 387.902C1491.38 387.98 1490.93 388.136 1490.71 388.214C1490.96 392.038 1490.88 422.104 1490.79 425.698C1488.39 424.711 1489.85 421.282 1489.27 410.857C1488.75 410.76 1488.26 410.672 1487.78 410.589C1487.51 409.435 1486.95 408.412 1486.14 407.569C1485.94 404.466 1486.61 401.218 1485.42 398.251C1485.1 398.163 1484.45 397.983 1484.14 397.891C1483.86 398.057 1483.3 398.393 1483.03 398.558C1480.19 397.837 1477.57 396.522 1474.8 395.641C1473.15 394.876 1470.8 394.55 1470.54 392.383C1469.9 392.164 1469.25 391.672 1468.68 392.227C1468.59 392.602 1468.42 393.352 1468.33 393.727C1464.32 395.797 1460.07 397.336 1455.89 399.026C1455.14 398.792 1453.85 397.857 1453.44 399.002C1452.6 401.885 1453.3 404.964 1452.82 407.91C1451.59 408.577 1451.44 409.912 1451.52 411.168C1451.1 411.173 1450.26 411.183 1449.84 411.188C1449.56 416.005 1449.79 420.837 1449.69 425.663C1446.61 426.733 1447.62 421.781 1447.44 443.84C1446.69 443.918 1445.95 444.006 1445.24 444.098C1446.62 441.166 1444.77 438.112 1445.14 435.073C1444.85 432.555 1445.74 429.715 1444.45 427.431C1441.76 427.528 1439.06 427.816 1436.41 427.114C1436.34 424.259 1436.9 280.718 1436.08 279.013C1433.73 278.049 1431.09 278.448 1428.63 278.112C1427.55 257.51 1430.04 250.58 1427.03 249.127C1423.7 248.659 1420.17 248.84 1417.09 247.301C1413.79 246.955 1410.43 247.174 1407.2 246.327C1406.89 245.338 1406.75 244.315 1406.54 243.312C1406.07 243.078 1405.61 242.849 1405.18 242.625C1405.24 242.265 1405.35 241.549 1405.41 241.193C1403.62 240.316 1402.81 238.397 1401.31 237.185C1400.98 236.313 1401.96 235.831 1402.41 235.256C1402.08 235.11 1401.42 234.818 1401.09 234.672C1401.45 234.151 1401.81 233.635 1402.2 233.123C1401.87 232.685 1401.52 232.261 1401.3 231.784C1401.46 231.224 1401.86 230.776 1402.17 230.284C1401.28 229.729 1401.36 228.682 1401.28 227.781C1401.59 227.859 1402.19 228.01 1402.5 228.088C1402.04 227.503 1401.59 226.924 1401.17 226.344C1401.49 225.833 1401.82 225.321 1402.18 224.82C1400.9 223.656 1401.19 221.907 1401.54 220.402C1400.71 219.04 1402.32 213.925 1401.2 211.757C1401.66 210.413 1402.07 209 1400.87 207.934C1401.67 207.768 1402.32 208.153 1402.91 208.699C1402.43 206.722 1401.39 204.807 1401.39 202.762C1401.96 201.315 1402.35 199.806 1401.8 198.286C1402.07 197.731 1402.35 197.18 1402.67 196.635C1402.35 196.138 1402.05 195.641 1401.78 195.145C1402.68 194.151 1402.81 192.671 1401.58 191.857C1401.82 191.75 1402.3 191.54 1402.54 191.438C1402.56 190.552 1402.39 189.689 1401.93 188.935C1402.07 188.126 1403.17 187.07 1402 186.534C1402.17 186.505 1402.51 186.441 1402.68 186.412C1402.38 186.242 1401.8 185.901 1401.51 185.725C1401.77 185.574 1402.3 185.272 1402.56 185.121C1402.5 184.449 1402.46 183.786 1402.41 183.124C1401.92 182.505 1401.45 181.872 1401.02 181.234C1401.39 180.606 1401.8 179.992 1402.13 179.334C1401.47 178.375 1400.31 177.975 1399.38 177.386C1398.87 178.053 1398.39 178.725 1397.91 179.393C1399.2 181.015 1397.98 182.885 1398.06 184.692C1398 186.192 1398.33 187.673 1398.85 189.08C1398.43 188.656 1398.03 188.237 1397.64 187.819C1397.5 188.769 1397.4 189.719 1397.28 190.668C1398.12 196.284 1396.26 206.468 1397.65 208.68C1397.51 208.865 1397.22 209.24 1397.07 209.425C1396.97 213.015 1397.91 216.78 1396.28 220.16C1396.85 221.923 1396.92 223.803 1396.37 225.581C1396.5 225.849 1396.76 226.385 1396.88 226.648C1396.64 226.706 1396.13 226.828 1395.88 226.887C1396.15 226.906 1396.69 226.95 1396.97 226.97C1395.87 230.136 1396.56 233.487 1396.37 236.75C1395.67 236.506 1394.95 236.263 1394.27 236.034C1393.97 237.495 1394.24 238.995 1394 240.466C1393.44 239.643 1393.09 238.644 1392.35 237.987C1390.97 237.339 1389.41 237.583 1387.96 237.534C1387.91 238.562 1387.88 239.609 1387.61 240.612C1387.39 239.584 1387.29 238.542 1387.23 237.505C1386.73 237.695 1386.24 237.89 1385.77 238.094C1385.81 237.5 1385.82 236.91 1385.8 236.326C1383.84 235.357 1381.4 236.233 1380.62 238.289C1380.28 237.563 1379.98 236.842 1379.69 236.117C1380.19 234.154 1377.99 232.469 1378.88 230.496C1379.7 228.236 1378.88 225.854 1378.76 223.551C1379.4 222.64 1379.2 221.666 1378.67 220.77C1379.09 219.621 1378.84 218.427 1378.67 217.258C1378.32 216.508 1379.27 216.576 1379.75 216.362C1379.55 214.501 1379.19 212.66 1378.59 210.892C1379 210.507 1379.74 210.332 1379.94 209.733C1379.84 208.7 1378.35 207.814 1379.32 206.777C1379.91 207.264 1380.55 207.732 1381.19 208.185C1380.83 207.367 1380.41 206.583 1379.76 205.979C1378.12 202.516 1378.2 198.566 1378.69 194.859C1377.21 189.945 1379.16 180.849 1377.19 176.609C1374.29 177.978 1377.5 189.164 1374.81 195.332C1375.28 196.184 1375.6 197.09 1374.53 197.641C1374.56 199.019 1374.55 200.398 1374.47 201.776C1374.69 201.927 1375.13 202.239 1375.36 202.395C1375.19 202.853 1375.04 203.311 1374.91 203.773C1375.02 203.992 1375.24 204.426 1375.35 204.645C1375.05 205.176 1374.76 205.707 1374.49 206.238C1374.79 206.832 1375.1 207.422 1375.42 208.016C1374.99 208.659 1374.58 209.297 1374.16 209.935C1374.4 209.867 1374.87 209.73 1375.11 209.657C1375.14 210.139 1375.21 211.108 1375.25 211.591C1374.84 212.015 1374.48 212.443 1374.11 212.872C1375.02 213.237 1375.22 214.172 1375.48 215.039C1374.91 215.385 1374.4 215.74 1373.86 216.096C1374.26 216.252 1375.05 216.559 1375.45 216.715C1375.11 217.738 1374.78 218.761 1374.41 219.774C1374.73 220.066 1375.07 220.363 1375.43 220.665C1373.98 221.975 1375.32 223.816 1375.41 225.414C1375.05 225.419 1374.35 225.429 1373.99 225.434C1373.83 225.887 1373.72 226.35 1373.59 226.807C1374.75 225.56 1375.02 227.44 1374.57 228.254C1374.03 228.249 1373.5 228.249 1372.99 228.254C1372.65 224.582 1372.91 220.885 1372.56 217.212C1372.81 217.202 1373.31 217.188 1373.56 217.178C1372.84 216.934 1372.22 216.594 1371.68 216.106C1372.01 218.941 1371.93 233.774 1371.39 235.993C1371.54 236.66 1371.7 237.332 1371.89 238.005C1371.56 238.083 1370.9 238.249 1370.57 238.331C1370.55 239.407 1370.56 240.494 1370.6 241.575C1369.87 241.166 1369.14 240.796 1368.4 240.474C1368.08 241.015 1367.78 241.555 1367.5 242.101C1367.39 243.09 1368.14 244.785 1366.7 244.999C1366.19 244.103 1365.77 243.177 1365.25 242.301C1365.15 243.426 1365.11 244.561 1365.12 245.691C1364.54 245.72 1363.97 245.749 1363.43 245.784C1363.1 244.732 1363.08 243.368 1361.91 242.886C1362.04 243.198 1362.32 243.826 1362.45 244.138C1361.88 245.171 1361.27 246.227 1360.22 246.827C1360.16 247.343 1360.12 247.864 1360.11 248.391C1354.89 249.18 1349.66 249.94 1344.5 251.075L1344.73 276.227C1343.58 276.393 1342.46 276.573 1341.35 276.763C1341.38 284.283 1341.27 291.808 1341.46 299.329C1338.18 299.436 1334.92 298.978 1331.65 299.051C1329.36 299.017 1327.29 300.454 1324.99 300.035C1324.73 300.157 1324.5 300.288 1324.28 300.42C1322.49 300.668 1320.72 301.009 1318.94 301.243C1318.75 301.974 1318.58 302.714 1318.35 303.435C1317.02 304.015 1315.75 302.963 1314.53 302.568C1311.54 303.552 1308.35 302.69 1305.31 303.347C1302.12 303.547 1299.07 304.565 1295.9 304.867C1295.84 305.573 1295.77 306.275 1295.74 306.991C1293.74 306.655 1291.7 306.48 1289.68 306.484C1290.16 306.046 1290.72 305.627 1291.23 305.198C1286.32 305.812 1287.13 304.073 1285.03 306.031C1281.91 306.128 1278.82 305.417 1275.72 305.724C1275.78 305.291 1275.9 304.414 1275.95 303.975C1274.15 304.408 1272.42 305.1 1270.6 305.446C1270.87 304.847 1271.19 304.258 1271.5 303.668C1270.69 303.804 1269.87 303.946 1269.09 304.092C1269.11 304.409 1269.15 305.032 1269.18 305.349C1268.73 305.188 1268.3 305.032 1267.88 304.881C1267.99 304.511 1268.22 303.771 1268.34 303.4C1266.97 303.872 1265.62 304.369 1264.22 304.681C1264.24 304.306 1264.27 303.556 1264.29 303.176C1264.06 303.244 1263.6 303.376 1263.37 303.439C1263.33 303.083 1263.24 302.377 1263.21 302.022C1263.15 302.933 1262.95 303.829 1262.55 304.652C1262.32 304.55 1261.87 304.35 1261.65 304.248C1258.28 305.841 1254.39 305.349 1250.94 306.693C1249.93 305.923 1248.68 305.792 1247.47 305.733C1246.32 306.814 1244.66 306.171 1243.28 306.561C1243.73 306.629 1244.64 306.761 1245.09 306.829C1243.79 307.959 1241.48 307.891 1240.24 306.693C1239.52 304.789 1239.57 302.548 1240.69 300.795C1241.54 298.749 1238.76 297.785 1237.62 296.621C1237.94 296.426 1238.57 296.032 1238.89 295.837C1238.91 295.623 1238.95 295.204 1238.97 294.99C1238.37 294.956 1237.78 294.922 1237.22 294.888C1236.64 294.542 1236.21 293.763 1235.47 293.958C1234.34 295.254 1233.92 296.973 1233.6 298.619C1233.13 298.97 1232.68 299.335 1232.22 299.666C1231.75 299.096 1231.38 298.473 1231.01 297.864C1230.79 297.767 1230.34 297.572 1230.12 297.474C1228.65 293.967 1225.03 292.092 1223.35 288.697C1218.85 288.234 1214.39 287.455 1209.88 287.056C1208.92 276.419 1213 276.645 1200.17 275.776C1200 275.109 1199.84 274.441 1199.64 273.799C1198.96 273.478 1198.08 273.507 1197.54 273.01C1197.12 271.938 1196.88 270.823 1196.52 269.742C1195.76 269.421 1195 269.089 1194.27 268.758C1193.22 269.206 1192.09 269.513 1191.15 270.151C1190.79 271.052 1190.67 272.031 1190.37 272.952C1189.78 273.346 1189.02 273.342 1188.39 273.546C1187.96 274.359 1187.82 275.26 1187.78 276.166C1186.94 276.122 1186.11 276.083 1185.29 276.049C1185.18 275.849 1184.97 275.455 1184.86 275.255C1183.8 276.414 1182.15 276.473 1180.75 276.877C1180.61 277.111 1180.32 277.583 1180.18 277.822C1179.6 277.929 1179.03 278.041 1178.47 278.158C1178.44 282.853 1178.25 287.558 1178.68 292.239C1177.62 292.351 1176.59 292.478 1175.55 292.599C1175.46 292.916 1175.27 293.544 1175.17 293.86C1174.17 293.943 1173.19 294.03 1172.22 294.128C1171.72 298.74 1172.22 303.377 1172.08 308.004C1171.35 308.16 1170.63 308.316 1169.92 308.476C1169.86 308.812 1169.73 309.479 1169.66 309.815C1168.32 310.219 1166.96 310.531 1165.58 310.76C1165.38 315.309 1165.71 319.868 1165.67 324.422C1164.95 324.612 1164.26 324.802 1163.57 324.997C1163.52 325.328 1163.41 325.991 1163.35 326.322C1162.04 326.6 1160.48 326.337 1159.36 327.077C1158.81 328.247 1159.3 347.638 1159.41 349.462C1158.73 349.452 1158.06 349.442 1157.4 349.438C1157.44 349.682 1157.52 350.169 1157.56 350.412C1157.04 350.385 1143.12 350.422 1143.12 350.422C1143.12 350.042 1143.14 349.277 1143.15 348.898C1128.95 347.674 1127.45 348.416 1124.33 348.961C1124.34 350.067 1124.35 351.177 1124.39 352.293C1122.44 352.641 1090.38 356.732 1089.64 356.691C1089.57 361.666 1089.75 466.173 1089.79 472.49C1084.87 473.04 1079.9 472.865 1074.99 473.396C1075.17 475.291 1075.18 477.2 1075.14 479.109C1073.3 479.445 1071.42 479.499 1069.61 479.046C1068.66 478.145 1067.38 477.848 1066.16 478.267C1065.67 478.111 1065.2 477.96 1064.74 477.814C1065.09 478.325 1065.45 478.832 1065.82 479.358C1064.68 479.48 1063.54 479.606 1062.41 479.748C1062.4 478.633 1062.39 477.517 1062.4 476.412C1059.9 474.78 1056.84 476.256 1054.1 475.959C1054.21 475.521 1054.44 474.644 1054.55 474.21C1054.28 474.249 1054.01 474.298 1053.77 474.361C1053.8 474.765 1053.85 475.574 1053.88 475.983C1053.43 475.978 1052.51 475.968 1052.06 475.964C1052.05 475.604 1052.02 474.883 1052.01 474.522C1050.65 474.576 1049.3 474.629 1047.96 474.736C1047.16 473.718 1046.59 472.559 1046.43 471.273C1046.24 471.273 1045.88 471.268 1045.69 471.263C1045.29 468.253 1045.03 465.233 1045.28 462.194C1044.6 462.92 1044.07 463.748 1043.61 464.615C1042.75 463.777 1041.82 463.008 1041.12 462.043C1040.32 460.09 1041.41 457.64 1039.87 455.964C1039.06 454.963 1030.87 444.449 1030.16 441.878C1028.89 439.978 1029.63 437.48 1029.38 435.322C1028.17 435.142 1026.97 434.952 1025.78 434.723C1025.16 434.908 1024.55 435.103 1023.96 435.303C1023.93 437.451 1023.89 439.604 1023.75 441.752C1022.41 443.762 1024.32 442.954 1017.98 450.87C1017.84 450.583 1017.56 450.013 1017.43 449.725C1016.05 449.754 1014.68 449.74 1013.32 449.623C1012 447.538 1009.37 447.012 1007.15 447.894C1006.67 447.626 1006.19 447.358 1005.73 447.1C1005.71 447.431 1005.67 448.103 1005.64 448.439C1005.47 448.157 1005.13 447.596 1004.96 447.314C1004.49 447.455 1004.03 447.606 1003.59 447.767C1004.8 443.413 1003.93 438.834 1004.03 434.383C1002.52 434.1 1000.98 433.935 999.463 434.047C995.113 434.315 990.784 433.76 986.488 433.209C986.298 433.404 985.923 433.798 985.733 433.993C984.588 434.066 983.449 434.134 982.324 434.188C980.6 433.565 978.754 432.917 976.942 433.535C977.2 432.863 977.527 432.21 977.712 431.509C977.551 430.501 977.22 429.532 977.079 428.528C978.331 427.447 977.819 425.684 976.524 424.909C976.597 424.169 976.84 423.477 977.41 422.961C977.347 422.537 977.298 422.118 977.264 421.704C975.879 419.817 976.457 423.285 976.144 409.206C976.237 408.217 975.428 407.589 974.873 406.922C967.369 405.876 967.978 408.944 965.215 405.962C965.147 406.215 965.01 406.722 964.937 406.975C963.753 406.99 962.575 406.965 961.411 406.902C961.25 406.02 961.119 405.149 960.973 404.277C960.471 404.56 959.979 404.852 959.497 405.149C959.69 386.829 959.747 390.338 957.856 385.457C951.903 385.115 908.424 383.227 902.112 383.143C901.951 384.687 901.805 386.236 901.703 387.79C899.054 387.809 896.419 388.165 893.774 387.922C893.94 388.302 894.11 388.687 894.295 389.076C895.469 388.779 896.652 388.54 897.865 388.355C898.001 389.451 898.123 390.552 898.245 391.657C897.383 391.677 896.531 391.701 895.688 391.73C895.372 392.017 895.065 392.31 894.768 392.607C892.664 392.967 890.535 393.24 888.412 392.972C887.185 393.839 885.675 393.946 884.243 394.146C884.413 424.958 884.413 455.769 884.74 486.576C884.497 486.6 884.005 486.649 883.761 486.669C883.74 484.945 883.1 369.772 883.167 367.821C882.167 368.004 865.84 370.858 863.719 371.026C862.842 371.747 861.98 372.482 861.128 373.218C861.094 373.939 861.074 374.669 861.065 375.405C860.807 375.483 860.286 375.639 860.028 375.717C859.833 376.277 859.619 376.828 859.395 377.378C857.588 378.474 855.114 377.724 853.463 379.166C848.661 383.053 843.844 386.93 838.939 390.69C839.636 400.762 839.874 410.859 840.473 420.941C839.854 421.774 839.348 422.685 838.939 423.639C838.647 423.683 838.072 423.771 837.78 423.814C837.614 423.288 837.458 422.767 837.312 422.251C836.669 422.319 836.036 422.397 835.412 422.475C835.246 423.157 835.086 423.844 834.94 424.535C833.937 424.428 833.44 423.658 833.162 422.796C831.808 422.436 831.155 423.493 831.009 424.671C830.42 424.744 829.845 424.827 829.285 424.915C829.319 424.54 829.382 423.8 829.417 423.425C829.071 423.401 828.379 423.342 828.034 423.313C828.019 422.524 828.014 421.735 828.014 420.956C827.327 419.768 827.322 418.521 828.287 417.488C825.808 410.914 828.958 404.352 826.017 400.563C824.273 400.597 822.471 400.909 820.771 400.422C820.445 399.311 820.537 398.143 820.284 397.032C818.224 395.902 815.696 396.297 813.426 396.097C813.411 395.683 813.382 394.85 813.367 394.436C810.776 393.374 807.883 393.725 805.17 393.213C805.029 392.867 804.746 392.176 804.605 391.83C804.001 392.366 803.694 393.403 802.744 393.34C802.647 392.945 802.447 392.156 802.349 391.757C802.179 391.801 801.838 391.879 801.667 391.918C801.57 393.038 800.742 393.618 799.733 393.9C798.949 393.257 798.301 392.473 797.916 391.538C797.229 391.728 796.976 392.317 796.879 392.98C796.562 392.775 795.924 392.361 795.608 392.152C795.667 391.733 795.783 390.886 795.842 390.462C795.194 391.475 794.537 392.493 793.655 393.316C791.677 393.126 789.671 393.107 787.723 393.447C787.441 393.817 787.212 394.217 787.041 394.65C786.039 394.612 767.507 395.346 763.526 396.501C763.521 397.358 763.526 398.22 763.546 399.092C762.689 399.248 761.841 399.418 761.004 399.589C760.843 399.891 760.517 400.5 760.356 400.802C759.499 400.403 758.646 400.008 757.804 399.623C757.346 399.954 756.893 400.295 756.455 400.636C755.53 400.631 754.619 400.631 753.708 400.631C753.635 405.497 753.859 410.363 753.757 415.228C753.104 414.6 752.783 413.811 752.608 412.963C752.632 413.689 752.657 414.424 752.686 415.16C751.994 415.214 751.317 415.277 750.65 415.34C750.499 414.678 750.353 414.025 750.207 413.382C750.197 414.113 750.197 414.843 750.212 415.584C749.706 415.618 748.687 415.681 748.176 415.715C748.298 414.989 748.434 414.273 748.575 413.557C748.19 414.697 747.309 415.393 746.154 415.651C746.135 415.227 746.1 414.38 746.086 413.956C745.789 414.448 745.502 414.95 745.224 415.456C744.727 415.222 744.24 414.993 743.758 414.769C743.022 414.93 742.224 415.519 741.508 415.037C741.352 414.365 741.235 413.693 741.152 413.025C741.503 412.971 742.199 412.869 742.55 412.82C742.545 412.401 742.535 411.559 742.53 411.135C741.006 411.237 741.327 409.737 741.176 408.739C741.512 408.656 742.179 408.491 742.515 408.408C742.525 407.989 742.549 407.147 742.559 406.728C741.059 406.908 741.322 405.52 741.249 404.526C741.58 404.39 742.243 404.122 742.574 403.985C742.554 403.537 742.516 402.636 742.491 402.188C742.204 402.198 741.619 402.222 741.327 402.237C741.298 401.472 741.273 400.712 741.264 399.962C741.605 399.899 742.287 399.772 742.628 399.709C742.482 398.798 742.608 397.546 741.284 397.761C741.187 397.162 741.099 396.568 741.021 395.978C741.508 395.725 742 395.471 742.506 395.228C742.496 394.848 742.477 394.088 742.467 393.704C740.85 393.943 741.123 392.418 741.025 391.342C741.4 391.215 742.155 390.967 742.535 390.84C742.511 390.465 742.462 389.72 742.438 389.345C741.001 389.389 741.118 388.064 741.118 387.046C742.423 386.978 742.53 385.935 742.516 384.883C741.06 385.024 741.011 383.836 741.318 382.794C742.248 382.419 742.346 381.498 742.438 380.627C741.035 380.69 741.026 379.453 740.889 378.43C741.254 378.298 741.975 378.031 742.336 377.899C742.453 376.988 742.38 376.126 741.459 375.683C741.41 375.123 741.381 374.573 741.371 374.022C742.238 373.637 742.345 372.765 742.413 371.928C740.742 371.806 740.377 369.074 742.272 369.069C742.282 368.465 742.301 367.871 742.33 367.277C741.975 367.228 741.268 367.136 740.918 367.087C741.035 366.089 740.967 364.881 742.228 364.647C742.233 364.15 742.247 363.663 742.272 363.176C740.621 363.176 741.118 361.505 740.986 360.414C741.293 360.326 741.907 360.151 742.213 360.063C742.208 359.435 742.218 358.811 742.237 358.193C741.92 358.12 741.292 357.974 740.976 357.901C740.986 357.102 741.005 356.303 741.03 355.514C741.327 355.441 741.916 355.3 742.214 355.231C742.204 354.608 742.209 353.994 742.224 353.385C740.432 353.409 741.118 351.534 741.021 350.394C742.911 350.087 741.751 348.134 741.703 346.946C738.269 346.693 734.938 348.68 731.557 347.54C731.567 344.851 731.567 342.163 731.528 339.479C732.215 338.992 732.906 338.51 733.613 338.028C733.545 337.76 733.404 337.215 733.335 336.947C732.561 336.587 731.246 336.762 731.09 335.69C730.715 333.888 731.304 331.808 729.872 330.352C729.848 329.237 729.857 328.126 729.882 327.021C726.765 326.656 723.575 326.295 720.486 326.997C720.403 328 720.881 329.242 720.091 330.056C717.393 330.236 714.69 329.788 711.996 329.72C712.103 329.257 712.215 328.804 712.337 328.346C711.713 328.478 711.1 328.619 710.496 328.765C710.194 329.155 709.892 329.544 709.585 329.929C709.083 329.598 708.747 329.125 708.431 328.648C708.363 328.843 708.231 329.237 708.168 329.432C706.488 329.68 704.783 329.335 703.117 329.646C701.583 330.153 700.053 330.703 698.446 330.903C698.139 330.616 697.847 330.333 697.564 330.056C697.004 330.499 696.449 330.947 695.908 331.4C696.161 332.842 695.333 333.884 694.052 334.425C687.186 333.31 687.057 334.159 681.174 335.497C681.018 338.171 681.408 340.874 680.872 343.519C680.609 344.893 680.726 346.295 680.867 347.679C678.32 347.932 675.792 348.322 673.235 348.39C673.045 349.33 672.86 350.27 672.665 351.215C673.785 351.317 674.91 351.42 676.045 351.502C676.001 352.51 675.957 353.523 675.933 354.541C674.949 354.565 673.965 354.609 672.996 354.668C672.952 355.379 672.913 356.09 672.879 356.811C673.99 356.826 675.1 356.835 676.22 356.855C676.137 357.683 676.074 358.526 676.001 359.358C675.056 359.368 674.116 359.377 673.186 359.402C673.074 360.108 672.967 360.819 672.869 361.54C673.96 361.545 675.061 361.555 676.166 361.545C676.132 362.393 676.093 363.235 676.073 364.092C675.118 364.121 674.169 364.155 673.224 364.189C673.107 364.905 673.005 365.626 672.907 366.356C674.022 366.361 675.143 366.375 676.272 366.39C676.248 367.033 676.233 367.676 676.223 368.328C675.21 368.416 674.211 368.508 673.213 368.591C673.091 369.239 672.979 369.891 672.877 370.549C674.007 370.637 675.137 370.719 676.282 370.802C676.263 371.162 676.229 371.888 676.214 372.253C675.211 372.292 674.222 372.341 673.238 372.389C673.048 373.227 672.873 374.069 672.692 374.917C673.618 374.966 674.548 375.019 675.488 375.078C675.464 375.721 675.444 376.364 675.439 377.017C674.694 377.085 673.958 377.153 673.233 377.236C673.131 377.903 673.033 378.58 672.951 379.257C673.691 379.32 674.427 379.374 675.187 379.447C675.197 380.109 675.216 380.777 675.245 381.449C674.534 381.493 673.837 381.542 673.151 381.6C673.132 382.243 673.132 382.891 673.136 383.548C673.735 383.655 674.339 383.792 674.943 383.957C675.182 384.551 675.333 385.199 675.503 385.837C674.699 385.861 673.906 385.886 673.121 385.92C673.126 386.646 673.14 387.381 673.165 388.117C673.886 388.063 674.616 388.015 675.352 387.976C675.303 388.692 675.259 389.418 675.23 390.143C674.529 390.197 673.837 390.255 673.155 390.318C673.16 391.01 673.175 391.711 673.194 392.417C673.949 392.417 674.714 392.422 675.488 392.432C675.488 393.128 675.498 393.83 675.522 394.536C674.762 394.575 674.022 394.624 673.282 394.677C673.214 395.339 673.15 396.012 673.097 396.689C673.949 396.738 674.816 396.796 675.683 396.855C675.585 397.493 675.493 398.136 675.415 398.784C674.709 398.857 674.012 398.935 673.326 399.028C673.263 399.651 673.209 400.285 673.155 400.918C674.022 400.996 674.899 401.084 675.775 401.181C675.736 401.663 675.653 402.623 675.609 403.105C674.874 403.139 674.158 403.193 673.437 403.246C673.339 403.942 673.242 404.639 673.164 405.35C673.909 405.335 674.669 405.331 675.439 405.331C675.356 406.037 675.273 406.743 675.215 407.464C674.611 407.518 674.017 407.571 673.432 407.635C673.339 408.322 673.271 409.028 673.193 409.724C674.065 409.724 674.932 409.719 675.823 409.729C675.463 410.45 675.117 411.185 674.771 411.916C674.42 411.935 673.719 411.97 673.368 411.989C673.339 412.457 673.28 413.392 673.256 413.859C674.035 413.986 674.819 414.112 675.618 414.254C675.301 414.892 674.985 415.535 674.678 416.183C674.366 416.246 673.738 416.363 673.426 416.427C673.397 416.895 673.338 417.835 673.309 418.302C674.035 418.341 674.765 418.38 675.51 418.429C675.379 419.135 675.242 419.846 675.13 420.562C674.541 420.62 673.956 420.689 673.381 420.757C673.327 421.385 673.284 422.018 673.25 422.657C674.049 422.715 674.852 422.774 675.671 422.847C675.306 423.412 674.955 423.982 674.604 424.557C674.278 424.567 673.615 424.586 673.284 424.596C673.289 425.39 673.299 426.189 673.318 426.992C673.951 427.031 674.594 427.075 675.242 427.128C675.227 427.513 675.203 428.282 675.188 428.667C673.995 428.959 673.118 429.773 672.46 430.781C673.522 431.229 674.652 431.458 675.791 431.672C674.905 432.753 673.877 433.703 672.752 434.531C672.961 434.838 673.38 435.452 673.59 435.758C674.462 435.777 675.334 435.812 676.22 435.875C675.64 436.06 675.036 436.211 674.467 436.391C674.048 437.102 673.707 437.867 673.176 438.51C672.538 438.719 671.866 438.812 671.223 438.958C671.101 436.099 671.194 433.245 671.13 430.391C669.586 430.454 668.013 430.552 666.522 430.099C666.366 430.196 666.05 430.386 665.894 430.484C664.852 430.421 663.829 430.284 662.83 430.031C662.289 430.562 661.685 431.01 661.023 431.37C660.414 429.87 662.382 427.741 660.473 426.865C660.527 425.959 660.493 424.946 661.403 424.43C661.276 423.617 660.955 422.862 660.477 422.209C660.682 422.039 661.096 421.693 661.305 421.517C661.115 421.351 660.735 421.015 660.55 420.85C661.471 420.499 661.251 419.564 661.378 418.838C660.487 418.366 660.492 417.382 660.365 416.529C660.618 416.383 661.125 416.096 661.378 415.949C661.32 415.438 661.271 414.926 661.232 414.424C660.657 413.766 660.087 413.094 659.532 412.437C660.092 412.154 660.691 411.921 661.251 411.599C661.319 411.01 661.383 410.425 661.431 409.841C660.973 409.861 660.053 409.904 659.59 409.924C659.6 409.198 659.619 408.477 659.649 407.761C660.039 407.712 660.828 407.615 661.222 407.566C661.203 406.904 661.193 406.246 661.193 405.598C660.623 405.583 660.058 405.574 659.498 405.564C659.503 404.887 659.513 404.215 659.532 403.543C660.097 403.441 660.667 403.348 661.242 403.256C661.218 402.657 661.198 402.063 661.193 401.473C660.613 401.39 660.048 401.317 659.488 401.244C659.507 400.533 659.537 399.827 659.576 399.125C660.146 399.062 660.725 399.003 661.315 398.95C661.256 398.351 661.208 397.757 661.169 397.172C660.599 397.075 660.034 396.982 659.479 396.894C659.479 396.271 659.503 395.657 659.552 395.043C660.102 394.838 660.682 394.702 661.266 394.556C661.227 393.942 661.193 393.333 661.169 392.73C660.604 392.735 660.044 392.745 659.494 392.764C659.479 392.058 659.474 391.352 659.479 390.655C660.054 390.538 660.633 390.426 661.218 390.319C661.16 389.657 661.111 388.994 661.067 388.337C660.682 388.347 659.913 388.371 659.528 388.381C659.484 387.699 659.45 387.022 659.421 386.35C660.005 386.233 660.595 386.121 661.189 386.009C661.165 385.546 661.116 384.621 661.087 384.153C660.678 384.168 659.86 384.187 659.451 384.197C659.436 383.515 659.436 382.833 659.441 382.161C660.021 381.971 660.605 381.786 661.199 381.606C660.985 380.802 660.795 380.008 660.605 379.219C660.206 379.307 659.816 379.404 659.431 379.506C659.631 374.475 659.27 369.448 659.222 364.412C659.28 363.102 658.116 362.225 657.717 361.061C657.322 358.67 657.926 356.22 657.454 353.843C655.438 352.144 643.685 354.282 642.399 351.87C642.009 349.946 642.043 347.964 641.766 346.025C640.056 345.621 638.303 345.518 636.564 345.465C636.496 344.364 636.52 343.254 636.34 342.172C635.819 341.802 635.229 341.544 634.684 341.271C630.87 342.61 626.871 341.441 622.96 341.549C618.956 341.023 615.162 343.098 611.168 342.664C610.384 348.808 612.113 348.569 609.419 349.897C607.276 348.996 604.899 349.283 602.673 349.644C602.162 351.816 599.697 351.422 598.129 350.793C597.968 351.002 597.652 351.416 597.496 351.621C594.954 351.938 592.435 352.405 589.927 352.902C589.883 353.228 589.796 353.891 589.752 354.217C590.137 354.232 590.897 354.256 591.277 354.266C591.233 356.633 591.214 358.995 591.277 361.367C590.269 361.474 589.168 361.318 588.267 361.839C588.101 362.448 588.009 363.071 587.912 363.7C589.013 363.695 590.123 363.695 591.244 363.695C591.288 364.455 591.337 365.224 591.395 365.994C590.353 366.135 589.31 366.272 588.283 366.423C588.166 367.081 588.059 367.748 587.957 368.415C589.111 368.381 590.266 368.347 591.435 368.318C591.44 369.346 591.445 370.378 591.459 371.416C590.441 371.465 589.428 371.513 588.42 371.543C588.269 372.278 588.123 373.014 587.991 373.759C589.145 373.725 590.305 373.691 591.469 373.666C591.474 374.314 591.484 374.966 591.503 375.629C590.402 375.756 589.316 375.897 588.23 376.048C588.196 376.71 588.171 377.378 588.157 378.05C589.267 378.06 590.383 378.074 591.508 378.089C591.498 378.722 591.493 379.36 591.498 380.003C590.402 380.135 589.321 380.271 588.235 380.407C588.206 380.884 588.142 381.829 588.113 382.302C589.243 382.341 590.378 382.375 591.527 382.419C591.507 383.072 591.493 383.734 591.488 384.401C591.147 384.464 590.455 384.586 590.114 384.649C590.114 385.311 590.124 385.984 590.138 386.661C590.484 386.661 591.171 386.666 591.512 386.671C591.546 387.134 591.614 388.059 591.648 388.522C591.283 388.605 590.542 388.78 590.172 388.868C590.196 389.623 590.225 390.388 590.269 391.157C590.61 391.215 591.287 391.332 591.628 391.391C591.643 391.946 591.667 392.502 591.696 393.071C591.306 393.1 590.527 393.164 590.137 393.193C589.742 394.761 591.043 395.687 592.061 396.602C591.491 396.738 590.936 396.875 590.386 397.016C590.386 397.664 590.396 398.316 590.41 398.974C590.766 398.998 591.477 399.047 591.837 399.071C591.861 399.724 591.9 400.381 591.944 401.048C591.398 401.131 590.863 401.218 590.332 401.306C590.352 401.929 590.381 402.553 590.42 403.181C590.746 403.205 591.404 403.259 591.73 403.283C591.788 403.716 591.905 404.583 591.959 405.017C591.467 405.212 590.98 405.412 590.498 405.616C590.493 406.21 590.498 406.819 590.508 407.428C591.014 407.633 591.531 407.847 592.052 408.066C591.969 408.451 591.808 409.225 591.726 409.61C591.39 409.717 590.713 409.927 590.377 410.034C590.552 410.755 590.732 411.476 590.927 412.206C589.758 412.07 588.594 411.933 587.43 411.811C587.542 409.293 586.811 406.848 586.86 404.335C586.67 404.135 586.3 403.731 586.115 403.526C586.115 403.526 582.491 303.015 582.321 257.164C584.587 256.721 602.264 256.754 593.051 245.577C594.089 244.579 595.272 243.736 596.28 242.703C596.602 240.75 596.173 238.729 596.67 236.795C597.094 235.081 597.445 233.342 597.518 231.574C597.143 231.165 596.763 230.78 596.451 230.342C596.563 229.577 596.831 228.837 596.875 228.067C595.604 226.908 593.85 226.674 592.204 226.728C591.746 226.407 591.298 226.085 590.855 225.764C591.515 217.763 591.47 219.997 589.501 217.201C589.671 217.016 590.007 216.646 590.173 216.461C589.33 216.232 588.493 215.998 587.665 215.76C587.723 216.198 587.845 217.075 587.909 217.518C587.086 217.357 586.273 217.192 585.464 217.026C585.6 216.67 585.873 215.964 586.01 215.609C585.62 215.633 584.851 215.677 584.466 215.702C584.792 213.393 584.67 211.06 584.748 208.742C584.519 208.757 584.061 208.786 583.832 208.805C583.798 207.509 583.866 206.194 583.618 204.918C583.111 203.544 580.856 202.785 581.879 201.075C582.113 199.628 580.983 198.654 580.593 197.412C580.441 159.314 580.724 146.003 580.724 146.003C581.752 144.118 583.685 142.238 583.145 139.92C582.132 137.977 580.237 136.647 579.341 134.616C581.57 75.7151 577.776 111.18 579.049 81.8871C579.185 80.2701 577.71 79.1161 577.666 77.5471C576.5 29.0951 579.221 36.9081 576.127 33.5991C574.287 36.6391 573.798 75.2001 573.731 78.8621C573.288 79.2661 572.859 79.6711 572.431 80.0751C572.728 85.1791 572.212 90.2741 572.158 95.3781C569.344 97.4611 572.049 111.92 570.789 134.567C570.19 138.15 563.168 139.376 569.211 145.419C569.129 148.762 568.858 203.015 568.851 204.027C567.658 204.212 566.499 204.553 565.451 205.157C565.607 207.203 565.636 209.253 565.66 211.309C565.855 211.475 566.244 211.811 566.444 211.981C566.61 213.579 566.663 215.186 566.59 216.798C566.332 216.608 565.815 216.228 565.562 216.038C565.635 216.218 565.781 216.569 565.854 216.749C564.5 217.036 563.088 217.499 561.768 216.832C561.666 217.041 561.451 217.465 561.349 217.68C560.073 217.958 558.665 218.04 557.633 218.922C557.083 221.177 557.633 223.52 557.409 225.809C555.573 226.988 553.084 226.579 551.394 228.088C551.599 228.935 552.173 229.622 552.66 230.328C552.076 230.435 551.496 230.547 550.926 230.659C550.975 232.422 551.165 234.18 551.603 235.895C552.119 238.092 551.681 240.361 551.929 242.577C552.703 243.887 554.145 244.628 555.285 245.597C548.556 252.478 555.897 257.47 564.525 256.902C567.21 259.27 562.334 362.363 562.231 363.364C560.96 363.033 559.971 363.851 559.016 364.533C558.982 364.864 558.919 365.522 558.885 365.853C557.317 365.877 555.748 365.892 554.19 365.926C553.781 365.303 553.377 364.679 552.997 364.056C551.088 363.277 548.998 363.686 547.011 363.423C546.68 363.082 546.354 362.741 546.037 362.41C545.871 362.678 545.54 363.204 545.375 363.472C542.891 363.199 540.285 363.457 537.904 362.605C537.081 362.81 536.267 363.043 535.469 363.306C535.937 363.379 536.876 363.525 537.349 363.598C536.901 364.041 536.448 364.484 536.01 364.937C535.99 367.587 536 370.236 535.995 372.886C532.659 373.738 529.254 372.769 525.893 372.628C525.809 360.499 526.01 351.207 526.01 351.207C530.749 351.728 535.513 351.962 540.281 352.089C540.31 353.029 540.364 353.979 540.417 354.929C541.201 354.934 542.049 355.221 542.813 354.9C543.587 353.682 543.32 351.807 544.946 351.247C545.224 351.383 545.779 351.651 546.056 351.788C546.402 350.536 547.274 348.778 545.744 347.974C542.69 348.603 543.978 349.668 536.29 349.245C527.351 345.445 514.26 347.279 506.146 345.558C503.574 347.048 500.847 344.613 498.236 345.962C487.628 343.858 469.801 344.241 466.343 345.119C465.14 340.346 466.986 335.441 465.832 330.653C466.543 330.853 467.274 331.067 467.99 331.286C472.396 328.72 486.215 326.001 487.872 325.729C487.38 324.784 487.005 323.8 486.562 322.846C486.562 322.846 465.046 327.074 462.189 327.556C459.997 327.848 458.4 329.533 456.432 330.386C455.58 330.055 454.722 329.743 453.87 329.436C453.281 329.607 452.691 329.772 452.112 329.943C451.81 330.859 451.552 331.789 451.342 332.739C452.102 332.656 452.862 332.573 453.631 332.495C453.631 333.328 453.646 334.175 453.66 335.018C453.83 335.247 454.171 335.7 454.342 335.929C455.024 335.856 455.706 335.793 456.397 335.729C456.714 334.755 456.913 333.752 456.996 332.738C458.613 332.436 460.215 332.071 461.828 331.744C461.512 332.255 461.2 332.772 460.888 333.288C461.2 333.434 461.833 333.736 462.145 333.887C462.476 337.72 462.009 341.563 462.13 345.401C460.888 345.42 459.685 345.703 458.706 346.487C458.482 346.287 458.044 345.883 457.824 345.683C457.576 346.384 457.332 347.587 456.304 346.949C456.022 346.403 456.129 345.863 456.616 345.322C456.46 345.468 456.148 345.76 455.992 345.902C455.719 346.34 455.451 346.779 455.188 347.222C453.741 345.995 451.788 346.389 450.127 346.832C449.324 353.578 449.339 344.161 449.791 361.415C449.051 361.444 448.32 361.473 447.594 361.512C447.355 362.895 447.394 364.303 447.877 365.642C447.565 365.735 446.942 365.915 446.63 366.007C446.401 366.762 446.172 367.522 445.943 368.282C445.169 368.048 444.394 367.81 443.63 367.576C443.64 368.005 443.664 368.862 443.674 369.29C444.658 369.836 445.749 370.05 446.874 369.918C446.65 370.537 446.416 371.15 446.202 371.779C446.621 371.881 447.454 372.076 447.873 372.174C448.053 373.207 446.836 373.577 446.246 374.186C446.334 374.678 446.431 375.18 446.533 375.686C446.893 375.72 447.614 375.788 447.98 375.822C447.931 376.051 447.844 376.504 447.795 376.733C447.191 377.366 446.602 378.014 446.008 378.657C446.612 378.93 447.226 379.212 447.839 379.505C447.849 379.724 447.863 380.163 447.873 380.382C447.128 381.152 446.592 382.077 446.227 383.08C446.665 383.095 447.537 383.119 447.976 383.134C447.947 383.602 447.927 384.074 447.913 384.546C447.621 384.726 447.036 385.082 446.744 385.262C446.91 385.428 447.231 385.769 447.392 385.934C446.905 386.197 446.423 386.47 445.945 386.747C446.388 386.825 447.27 386.986 447.713 387.068C448.468 388.3 446.744 389.211 446.101 390.127C446.876 390.492 447.645 390.867 448.419 391.267C447.839 391.725 447.177 392.056 446.505 392.339C446.412 392.923 446.334 393.513 446.257 394.107C446.958 394.234 447.669 394.37 448.381 394.516C447.694 395.626 446.871 396.644 445.985 397.604C446.706 397.701 447.436 397.799 448.167 397.896C447.777 398.622 447.397 399.362 447.027 400.107C446.861 399.985 446.535 399.751 446.37 399.635C446.321 400.283 446.277 400.94 446.243 401.603C446.832 401.51 447.417 401.423 448.021 401.359C448.036 401.754 448.07 402.538 448.089 402.927C447.519 403.034 446.959 403.141 446.404 403.258C446.355 403.76 446.311 404.266 446.273 404.778C446.823 404.866 447.379 404.958 447.939 405.056C447.983 405.553 448.036 406.054 448.095 406.561C447.408 406.868 446.741 407.184 446.069 407.506C446.912 408.923 446.707 410.54 446.439 412.089C446.809 412.143 447.545 412.245 447.915 412.298C447.915 412.824 447.915 413.355 447.925 413.896C447.584 413.911 446.897 413.94 446.551 413.954C446.415 414.529 446.283 415.108 446.156 415.693C446.555 415.717 447.354 415.761 447.754 415.781C447.715 416.77 447.233 417.588 446.429 418.153C446.614 418.489 446.804 418.825 446.999 419.171C448.149 420.33 447.111 421.567 446.366 422.61C446.663 422.717 447.257 422.931 447.554 423.039C447.588 423.628 447.627 424.223 447.676 424.827C447.174 425.295 446.673 425.762 446.181 426.239C446.517 426.458 447.189 426.897 447.525 427.116C447.432 428.046 447.32 428.977 447.213 429.912C446.999 429.902 446.56 429.883 446.341 429.873C446.925 430.506 447.529 431.154 447.924 431.948C447.403 432.401 446.536 432.674 446.502 433.492C446.994 434.213 447.559 434.88 448.109 435.572C447.719 435.762 446.945 436.147 446.555 436.337C447.037 437.379 447.519 438.431 447.963 439.498C447.719 439.595 447.228 439.785 446.979 439.883C446.872 440.385 446.76 440.896 446.653 441.408C447.086 441.661 447.53 441.915 447.978 442.182C447.695 442.917 447.428 443.668 447.165 444.418C446.907 444.491 446.391 444.642 446.127 444.715C446.731 445.066 448.519 445.212 447.754 446.254C445.908 446.386 444.067 446.459 442.235 446.692C442.186 448.528 442.206 450.374 442.24 452.22C441.48 452.283 440.73 452.361 439.985 452.454C440.005 452.819 440.039 453.545 440.058 453.905C439.673 453.691 439.298 453.481 438.928 453.277C438.134 453.876 437.326 454.456 436.483 454.977C436.795 454.899 437.418 454.753 437.73 454.675C436.395 457.227 435.446 459.935 434.788 462.736C434.598 462.702 434.218 462.629 434.028 462.595C434.164 463.063 434.354 463.525 434.593 463.973C434.311 464.007 433.741 464.08 433.453 464.114C433.312 464.849 433.18 465.604 433.044 466.354C431.666 466.013 430.321 465.56 429.089 464.849C429.177 464.294 429.264 463.738 429.357 463.193C429.075 463.578 428.792 463.967 428.524 464.362C426.001 463.724 423.532 462.818 421.281 461.513C420.224 461.713 419.162 461.917 418.12 462.151C417.482 461.226 417.005 460.208 416.673 459.141C414.491 458.844 412.314 458.43 410.103 458.503C409.981 458.761 409.728 459.273 409.606 459.531C408.72 459.205 407.848 458.878 406.986 458.518C406.367 458.645 405.754 458.781 405.145 458.922C403.901 449.629 405.358 435.821 403.947 433.093C402.374 433.078 400.757 433.288 399.227 432.84C398.672 429.762 398.832 426.508 398.711 423.362C398.969 419.651 397.513 416.139 397.123 412.496C396.899 414.206 396.729 415.93 396.743 417.664C396.67 417.328 396.519 416.661 396.441 416.325C396.246 416.252 395.857 416.106 395.662 416.033C395.638 414.801 395.238 413.642 394.629 412.59C393.674 414.158 393.421 416.019 392.656 417.675C392.671 417.29 392.7 416.516 392.714 416.131C391.832 414.918 391.399 413.491 391.189 412.03C390.95 414.124 390.98 416.238 390.712 418.333C390.352 418.367 389.635 418.435 389.28 418.474C389.148 418.761 388.885 419.346 388.754 419.638C388.749 417.826 388.735 416.019 388.798 414.212C387.449 414.124 387.142 415.313 386.981 416.418C386.674 416.34 386.056 416.189 385.749 416.111C385.832 417.348 385.934 418.585 386.071 419.822C378.485 421.25 378.402 417.077 371.396 420.095C369.044 421.142 366.418 421.059 363.929 421.532C364.124 423.514 364.052 421.048 363.934 432.208C362.731 431.94 361.421 430.786 360.218 431.502C358.552 432.681 356.682 431.02 354.86 431.103C354.728 427.932 355.026 424.737 354.495 421.595C353.784 421.22 353.068 420.85 352.366 420.48C352.39 419.637 352.415 418.8 352.449 417.967C354.504 417.602 356.569 417.154 358.679 417.305C359.034 416.91 359.39 416.521 359.76 416.141C358.401 400.088 362.252 404.258 351.719 402.367C351.719 399.245 353.068 395.943 351.305 393.03C350.847 392.777 350.385 392.548 349.912 392.348C349.537 391.778 349.167 391.213 348.797 390.653C343.433 390.646 337.496 391.395 333.844 388.544C333.425 389.625 333.05 390.721 332.631 391.802C330.337 391.057 327.911 391.013 325.549 391.393C325.072 390.906 324.599 390.424 324.137 389.942C323.002 390.015 321.862 390.049 320.728 390.083C320.796 389.046 320.869 388.013 320.952 386.985C320.382 387.068 319.812 387.155 319.252 387.248C319.203 388.782 319.164 390.346 319.573 391.851C318.998 392.718 318.433 393.595 317.922 394.505C318.248 396.088 318.443 397.7 318.58 399.317C318.351 399.332 317.898 399.356 317.669 399.371C318.653 400.379 318.366 401.836 318.141 403.097C317.596 403.048 317.055 402.98 316.524 402.897C315.433 403.136 314.322 403.316 313.202 403.272C311.138 404.06 310.285 401.888 311.064 417.056C311.785 417.158 312.506 417.261 313.231 417.373C313.28 418.279 313.328 419.19 313.382 420.105C310.723 420.056 308.063 420.027 305.409 420.056C303.139 420.041 300.972 421.04 298.692 420.767C298.546 420.957 298.259 421.342 298.112 421.532C297.342 421.357 296.578 421.191 295.813 421.016C295.116 422.078 294.819 423.291 294.99 424.562C294.313 424.825 293.578 425 292.988 425.444C292.769 426.613 292.764 427.811 292.496 428.975C291.785 429.16 291.059 429.253 290.343 429.384C290.299 428.985 290.216 428.181 290.173 427.782C289.423 427.753 288.683 427.733 287.942 427.719C287.981 428.094 288.054 428.849 288.088 429.224L240.546 430.524C238.856 430.826 238.145 428.722 236.596 428.537C234.365 428.186 232.11 428.06 229.879 427.733C228.218 427.587 227.293 425.571 225.51 425.916C223.601 426.101 221.511 425.58 219.729 426.403C219.617 426.72 219.388 427.363 219.276 427.679C206.424 429.258 211.109 426.77 189.892 426.52C188.251 426.481 186.2 427.504 184.992 425.94C184.88 426.242 184.656 426.851 184.544 427.158C179.974 427.951 183.466 427 175.889 428.527C175.845 429.082 175.806 429.642 175.767 430.212C174.767 430.184 153.65 430.3 150.518 429.15C150.042 429.214 139.522 429.578 138.819 429.501C138.248 430.341 137.619 430.208 130.31 431.483C130.281 432.647 130.242 433.811 130.183 434.98C128.337 435.034 126.491 435.058 124.645 435.048C124.528 434.902 124.294 434.619 124.177 434.473C119.323 436.285 123.751 431.344 115.381 432.14C115.074 433.08 114.962 434.059 115.03 435.053C113.934 435.034 112.838 435.029 111.747 435.034C111.674 434.644 111.533 433.87 111.46 433.48C110.685 433.836 109.921 434.254 109.458 435.009C105.114 435.136 100.759 434.965 96.4148 435.106C95.7178 437.259 95.9518 439.538 95.9278 441.759C95.2168 441.662 94.5108 441.574 93.7998 441.486C93.8488 440.522 93.8878 439.557 93.8828 438.607C92.8748 439.474 94.0878 441.072 92.9968 441.836C92.2568 442.474 91.1898 442.284 90.2938 442.469C90.3088 442.031 90.3328 441.154 90.3468 440.716C91.2718 440.653 92.2028 440.599 93.1278 440.516C92.0318 440.219 90.8968 440.151 89.7668 440.121C89.8158 440.715 89.8638 441.319 89.9128 441.928C89.5138 442.274 89.1188 442.629 88.7248 442.995C88.8318 444.091 88.8908 445.201 88.8268 446.307C87.7988 446.385 86.4938 446.039 86.0018 447.252C85.5828 446.731 85.1588 446.21 84.7358 445.708C84.1168 447.164 83.4648 448.811 84.2098 450.359C81.8668 449.609 79.4318 450.271 77.0988 450.719C76.9088 451.328 76.7188 451.946 76.5388 452.575C76.7338 456.34 76.7828 460.139 76.6068 463.919C76.9138 465.112 76.7378 466.349 76.6598 467.567C76.9128 468.775 76.7718 470.012 76.5378 471.215C76.6348 471.424 76.8348 471.843 76.9328 472.053C76.8078 474.543 77.2728 514.553 77.1378 515.348C75.9838 515.221 74.8288 515.095 73.6748 514.968C73.3238 514.476 72.9688 513.989 72.6128 513.512C72.1548 513.824 71.6968 514.14 71.2388 514.462C71.2928 513.376 71.3358 512.295 71.3798 511.218C65.8468 511.423 60.3038 511.574 54.7658 511.427C53.2658 510.112 51.0348 510.852 49.2328 510.828C48.1028 510.75 48.1758 512.187 48.1318 512.971C48.1898 517.583 48.2288 522.201 48.2048 526.818C47.8978 526.443 47.5858 526.068 47.2798 525.703C45.3368 528.226 46.4028 531.47 46.2768 534.382C42.7748 534.294 39.2728 534.367 35.7758 534.304C35.7418 532.575 35.6638 530.856 35.5668 529.136C33.6578 529.048 31.2568 529.867 29.8828 528.099C28.7528 527.967 27.6808 528.255 26.9018 529.117C25.0408 527.968 23.0588 529.365 21.4268 530.276C18.9788 529.606 20.2768 528.911 16.4588 530.943C16.8438 531.279 16.9168 531.674 16.6728 532.131C16.8528 532.969 16.9748 533.816 17.0478 534.688C11.3588 534.518 5.66984 534.571 -0.0141602 534.844V565.583H2559.99V500.52C2559.15 500.515 2558.33 500.515 2557.54 500.52ZM584.986 216.012C585.624 216.45 584.913 217.649 584.231 217.235C583.705 216.772 584.329 215.715 584.986 216.012ZM500.973 412.454C499.585 414.877 500.869 419.054 500.281 423.608C501.284 423.866 501.046 424.845 501.007 425.62C500.622 426.336 500.335 427.091 500.077 427.861C500.837 428.022 501.592 428.163 502.366 428.324C502.171 429.152 502.054 430.034 501.567 430.754C501.221 430.009 501.479 428.689 500.388 428.635V430.539C498.508 430.32 496.813 429.443 495.103 428.708C495.025 427.846 494.82 427.018 494.436 426.253C494.67 426.234 495.137 426.199 495.371 426.18C495.059 424.953 494.762 423.73 494.475 422.503C494.704 422.367 495.167 422.084 495.4 421.948C495.444 420.794 494.592 419.971 494.353 418.957C494.592 418.796 495.069 418.48 495.308 418.324C495.03 417.218 494.753 416.118 494.392 415.046C494.645 414.958 495.142 414.783 495.395 414.695C495.025 413.599 494.767 412.479 494.518 411.364C494.727 411.31 495.151 411.208 495.361 411.159C494.869 409.975 494.265 408.602 495.195 407.457C494.991 406.595 494.83 405.718 494.722 404.851C494.483 404.997 494.001 405.299 493.763 405.445C493.198 404.296 494.771 404.237 495.414 403.828C495.141 402.976 494.81 402.118 493.87 401.836C492.984 400.721 494.494 400.57 495.244 400.326C495.01 399.488 494.864 398.616 494.835 397.759C493.614 398.98 493.78 398.28 493.569 397.252C494.188 397.043 494.835 396.862 495.386 396.492C495.215 396.097 494.87 395.313 494.694 394.919C494.499 394.953 494.11 395.016 493.915 395.046C493.837 394.671 493.681 393.916 493.603 393.536C494.153 393.395 494.704 393.258 495.264 393.127C494.869 391.783 494.835 390.38 495.171 389.026C495 388.5 494.835 387.979 494.679 387.463C494.45 387.585 493.997 387.833 493.773 387.955C493.749 387.536 493.7 386.708 493.68 386.289C494.226 386.133 494.781 385.982 495.341 385.836C494.903 385.3 494.722 384.643 494.732 383.971C494.498 384.083 494.036 384.307 493.807 384.419C493.617 383.664 493.675 382.953 493.982 382.286C494.157 382.403 494.513 382.637 494.693 382.758C494.805 382.475 495.039 381.915 495.156 381.633C494.922 380.922 494.903 379.933 493.904 380.099C493.938 379.67 494.006 378.813 494.04 378.385C494.839 378.721 495.613 379.135 496.368 379.588C496.782 379.403 497.201 379.228 497.629 379.052C498.243 379.943 499.188 380.499 500.079 381.088C500.006 381.838 499.957 382.608 500.303 383.319C499.962 386.607 500.444 389.919 500.133 393.221C500.415 394.672 500.342 396.143 500.05 397.595C500.751 397.761 501.448 397.921 502.159 398.097C502.096 398.379 501.959 398.944 501.896 399.227C501.497 399.208 500.698 399.159 500.303 399.134C500.225 399.714 500.157 400.298 500.103 400.892C500.61 402.163 500.303 403.517 500.054 404.813C500.624 405.061 502.153 405.466 501.223 406.318C501.004 406.391 500.566 406.542 500.346 406.615C500.205 407.219 500.073 407.833 499.947 408.456C500.751 408.714 501.564 408.953 502.382 409.201C502.07 410.049 501.159 410.102 500.419 410.277C500.341 410.944 500.268 411.621 500.2 412.298C500.393 412.338 500.778 412.416 500.973 412.454ZM522.155 373.222C521.575 373.422 521.006 373.636 520.441 373.86C518.629 373.324 518.288 371.41 517.801 369.847C516.194 370.237 514.241 370.972 513.734 372.726C512.862 373.013 511.985 373.31 511.138 373.656C508.379 371.96 511.484 373.271 504.368 372.823C503.788 373.602 502.897 373.924 501.957 373.856C501.558 374.664 501.743 375.829 501.158 376.462C499.283 376.73 497.437 377.86 495.518 377.222C494.826 376.579 494.334 375.756 493.784 375.011C494.315 374.87 494.851 374.729 495.391 374.602C494.821 373.492 494.373 372.323 493.983 371.149C495.405 371.212 496.852 371.69 498.279 371.329C498.289 370.662 498.308 370.004 498.333 369.347C497.276 369.371 496.224 369.371 495.182 369.323C495.606 368.68 496.063 368.066 496.526 367.453C495.489 366.562 494.354 365.578 493.716 364.404C494.086 362.758 494.403 361.082 493.526 359.519C493.789 356.105 493.039 352.632 493.823 349.257C496.517 348.91 515.755 350.244 516.764 350.343C517.363 350.952 517.904 351.687 518.717 352.048C519.292 351.629 519.788 351.123 520.344 350.67C520.67 351.839 520.617 353.773 522.37 353.475C522.25 353.702 522.158 372.96 522.155 373.222Z" fill="white"/>
<path d="M1362.49 245.076C1362.64 245.285 1362.64 245.285 1362.49 245.076Z" fill="black"/>
<path d="M828.647 283.294C782.45 283.294 745 245.844 745 199.647C745 153.45 782.45 116 828.647 116C874.844 116 912.294 153.45 912.294 199.647C912.294 245.844 874.844 283.294 828.647 283.294Z" fill="white"/>
<path d="M838.176 152C832.913 152 828.647 147.734 828.647 142.471C828.647 137.208 832.913 132.941 838.176 132.941C843.439 132.941 847.706 137.208 847.706 142.471C847.706 147.734 843.439 152 838.176 152Z" fill="#CBCBCB"/>
<path d="M821.235 247.294C815.972 247.294 811.706 243.028 811.706 237.765C811.706 232.502 815.972 228.235 821.235 228.235C826.498 228.235 830.765 232.502 830.765 237.765C830.765 243.028 826.498 247.294 821.235 247.294Z" fill="#CBCBCB"/>
<path d="M783.647 192.235C779.846 192.235 776.765 189.154 776.765 185.353C776.765 181.552 779.846 178.471 783.647 178.471C787.448 178.471 790.529 181.552 790.529 185.353C790.529 189.154 787.448 192.235 783.647 192.235Z" fill="#CBCBCB"/>
<path d="M862 228.235C850.012 228.235 840.294 218.517 840.294 206.529C840.294 194.541 850.012 184.823 862 184.823C873.988 184.823 883.706 194.541 883.706 206.529C883.706 218.517 873.988 228.235 862 228.235Z" fill="#CBCBCB"/>
<path opacity="0.8" d="M2305.74 152.284L2350.43 129.824L2395.12 107.363L2420.35 94.6843C2421.75 93.9827 2421.33 90.851 2419.94 91.5525L2375.25 114.013L2330.55 136.473L2305.32 149.152C2303.93 149.854 2304.34 152.985 2305.74 152.284Z" fill="url(#paint0_linear_3159_2)"/>
<g opacity="0.17">
<path d="M2238.6 190.068C2244.76 187.382 2232.27 185.818 2218.1 185.304C2203.92 184.79 2186.78 184.819 2177.72 183.356C2168.96 181.942 2169.6 179.428 2168.87 177.149C2168.13 174.871 2164.76 172.535 2151.09 172.029C2134.06 171.397 2105.97 173.827 2093.11 172.368C2081.11 171.007 2088.24 166.738 2070.75 166.575C2060.75 166.482 2047.88 167.889 2036.76 168.229C2026.33 168.547 2018.6 167.887 2013.19 166.999C2007.77 166.111 2003.99 164.986 1997.89 164.202C1981.88 162.143 1950.55 162.835 1922.59 165.474C1894.63 168.112 1870.67 172.437 1857.15 176.72C1843.63 181.003 1839.9 185.22 1843.05 188.796C1845.06 191.079 1850.2 193.215 1862.68 194.132C1886.03 195.848 1927.59 192.894 1951.71 194.456C1965.15 195.326 1971.12 197.484 1982.91 198.664C1995.59 199.933 2014.14 200 2032.36 199.97C2070.31 199.907 2109.23 199.517 2148.92 198.802C2165.5 198.504 2182.87 198.115 2200.51 196.692C2218.15 195.269 2236.14 192.523 2239.86 189.948" fill="white"/>
</g>
<g opacity="0.17">
<path d="M1483.6 209.068C1489.76 206.382 1477.27 204.818 1463.1 204.304C1448.92 203.79 1431.78 203.819 1422.72 202.356C1413.96 200.942 1414.6 198.428 1413.87 196.149C1413.13 193.871 1409.76 191.535 1396.09 191.029C1379.06 190.397 1350.97 192.827 1338.11 191.368C1326.11 190.007 1333.24 185.738 1315.75 185.575C1305.75 185.482 1292.88 186.889 1281.76 187.229C1271.33 187.547 1263.6 186.887 1258.19 185.999C1252.77 185.111 1248.99 183.986 1242.89 183.202C1226.88 181.143 1195.55 181.835 1167.59 184.474C1139.63 187.112 1115.67 191.437 1102.15 195.72C1088.63 200.003 1084.9 204.22 1088.05 207.796C1090.06 210.079 1095.2 212.215 1107.68 213.132C1131.03 214.848 1172.59 211.894 1196.71 213.456C1210.15 214.326 1216.12 216.484 1227.91 217.664C1240.59 218.933 1259.14 219 1277.36 218.97C1315.31 218.907 1354.23 218.517 1393.92 217.802C1410.5 217.504 1427.87 217.115 1445.51 215.692C1463.15 214.269 1481.14 211.523 1484.86 208.948" fill="white"/>
</g>
<path d="M2028.45 80.1978C2030.22 80.1978 2031.65 78.7675 2031.65 77.0032C2031.65 75.2389 2030.22 73.8086 2028.45 73.8086C2026.69 73.8086 2025.26 75.2389 2025.26 77.0032C2025.26 78.7675 2026.69 80.1978 2028.45 80.1978Z" fill="white"/>
<path d="M2304.47 69.3365C2305.53 69.3365 2306.38 68.4783 2306.38 67.4197C2306.38 66.3611 2305.53 65.5029 2304.47 65.5029C2303.41 65.5029 2302.55 66.3611 2302.55 67.4197C2302.55 68.4783 2303.41 69.3365 2304.47 69.3365Z" fill="white"/>
<path d="M1942.2 89.1431C1943.26 89.1431 1944.12 88.2849 1944.12 87.2263C1944.12 86.1677 1943.26 85.3096 1942.2 85.3096C1941.14 85.3096 1940.28 86.1677 1940.28 87.2263C1940.28 88.2849 1941.14 89.1431 1942.2 89.1431Z" fill="white"/>
<path d="M1848.92 69.4146C1849.98 69.4146 1850.83 68.5564 1850.83 67.4978C1850.83 66.4392 1849.98 65.5811 1848.92 65.5811C1847.86 65.5811 1847 66.4392 1847 67.4978C1847 68.5564 1847.86 69.4146 1848.92 69.4146Z" fill="white"/>
<path d="M2179.24 85.3091C2180.3 85.3091 2181.16 84.451 2181.16 83.3924C2181.16 82.3338 2180.3 81.4756 2179.24 81.4756C2178.18 81.4756 2177.32 82.3338 2177.32 83.3924C2177.32 84.451 2178.18 85.3091 2179.24 85.3091Z" fill="white"/>
<path d="M2264.87 143L2265.85 150.883C2267.56 153.635 2280.92 151.73 2266.05 153.915L2264.47 162L2263.49 154.521C2254.5 151.105 2255.18 154.233 2263.49 150.883L2264.87 143Z" fill="white"/>
<path opacity="0.8" d="M502.74 215.284L547.432 192.824L592.124 170.363L617.354 157.684C618.749 156.983 618.334 153.851 616.938 154.553L572.246 177.013L527.554 199.473L502.325 212.152C500.929 212.854 501.345 215.985 502.74 215.284Z" fill="url(#paint1_linear_3159_2)"/>
<g opacity="0.17">
<path d="M435.604 253.068C441.764 250.382 429.271 248.818 415.097 248.304C400.923 247.79 383.777 247.819 374.719 246.356C365.959 244.942 366.604 242.428 365.867 240.149C365.13 237.871 361.763 235.535 348.093 235.029C331.059 234.397 302.969 236.827 290.11 235.368C278.11 234.007 285.243 229.738 267.745 229.575C257.754 229.482 244.882 230.889 233.764 231.229C223.326 231.547 215.604 230.887 210.185 229.999C204.766 229.111 200.992 227.986 194.893 227.202C178.881 225.143 147.555 225.835 119.594 228.474C91.6341 231.112 67.667 235.437 54.1503 239.72C40.6337 244.003 36.8993 248.22 40.0478 251.796C42.0583 254.079 47.2032 256.215 59.6834 257.132C83.0267 258.848 124.587 255.894 148.709 257.456C162.153 258.326 168.117 260.484 179.913 261.664C192.585 262.933 211.136 263 229.363 262.97C267.313 262.907 306.234 262.517 345.921 261.802C362.498 261.504 379.867 261.115 397.506 259.692C415.145 258.269 433.137 255.523 436.858 252.948" fill="white"/>
</g>
<path d="M225.454 143.198C227.218 143.198 228.648 141.768 228.648 140.003C228.648 138.239 227.218 136.809 225.454 136.809C223.69 136.809 222.259 138.239 222.259 140.003C222.259 141.768 223.69 143.198 225.454 143.198Z" fill="white"/>
<path d="M501.468 132.336C502.526 132.336 503.384 131.478 503.384 130.42C503.384 129.361 502.526 128.503 501.468 128.503C500.409 128.503 499.551 129.361 499.551 130.42C499.551 131.478 500.409 132.336 501.468 132.336Z" fill="white"/>
<path d="M139.199 152.143C140.258 152.143 141.116 151.285 141.116 150.226C141.116 149.168 140.258 148.31 139.199 148.31C138.14 148.31 137.282 149.168 137.282 150.226C137.282 151.285 138.14 152.143 139.199 152.143Z" fill="white"/>
<path d="M45.9168 132.415C46.9754 132.415 47.8335 131.556 47.8335 130.498C47.8335 129.439 46.9754 128.581 45.9168 128.581C44.8582 128.581 44 129.439 44 130.498C44 131.556 44.8582 132.415 45.9168 132.415Z" fill="white"/>
<path d="M376.239 148.309C377.298 148.309 378.156 147.451 378.156 146.392C378.156 145.334 377.298 144.476 376.239 144.476C375.18 144.476 374.322 145.334 374.322 146.392C374.322 147.451 375.18 148.309 376.239 148.309Z" fill="white"/>
<path d="M422.229 181.16L430.414 172.127C424.056 171.159 421.443 175.944 420.374 179.731C415.407 176.885 410 180.615 410 180.615L426.375 188.818C425.549 185.774 424.111 183.117 422.229 181.16Z" fill="white"/>
<path d="M1783.17 306.389C1784.94 306.389 1786.37 304.959 1786.37 303.195C1786.37 301.43 1784.94 300 1783.17 300C1781.41 300 1779.98 301.43 1779.98 303.195C1779.98 304.959 1781.41 306.389 1783.17 306.389Z" fill="white"/>
<path d="M1696.92 315.335C1697.98 315.335 1698.83 314.476 1698.83 313.418C1698.83 312.359 1697.98 311.501 1696.92 311.501C1695.86 311.501 1695 312.359 1695 313.418C1695 314.476 1695.86 315.335 1696.92 315.335Z" fill="white"/>
<path d="M1933.96 311.501C1935.02 311.501 1935.87 310.642 1935.87 309.584C1935.87 308.525 1935.02 307.667 1933.96 307.667C1932.9 307.667 1932.04 308.525 1932.04 309.584C1932.04 310.642 1932.9 311.501 1933.96 311.501Z" fill="white"/>
<path d="M1979.95 344.351L1988.13 335.318C1981.77 334.35 1979.16 339.135 1978.09 342.922C1973.12 340.076 1967.72 343.806 1967.72 343.806L1984.09 352.01C1983.27 348.965 1981.83 346.308 1979.95 344.351Z" fill="white"/>
<path d="M1081.17 124.389C1082.94 124.389 1084.37 122.959 1084.37 121.195C1084.37 119.43 1082.94 118 1081.17 118C1079.41 118 1077.98 119.43 1077.98 121.195C1077.98 122.959 1079.41 124.389 1081.17 124.389Z" fill="white"/>
<path d="M994.917 133.335C995.975 133.335 996.834 132.476 996.834 131.418C996.834 130.359 995.975 129.501 994.917 129.501C993.858 129.501 993 130.359 993 131.418C993 132.476 993.858 133.335 994.917 133.335Z" fill="white"/>
<path d="M1231.96 129.501C1233.02 129.501 1233.87 128.642 1233.87 127.584C1233.87 126.525 1233.02 125.667 1231.96 125.667C1230.9 125.667 1230.04 126.525 1230.04 127.584C1230.04 128.642 1230.9 129.501 1231.96 129.501Z" fill="white"/>
<path d="M1277.95 162.351L1286.13 153.318C1279.77 152.35 1277.16 157.135 1276.09 160.922C1271.12 158.076 1265.72 161.806 1265.72 161.806L1282.09 170.01C1281.27 166.965 1279.83 164.308 1277.95 162.351Z" fill="white"/>
<path d="M461.868 206L462.853 213.883C464.557 216.635 477.923 214.73 463.05 216.915L461.473 225L460.488 217.521C451.498 214.105 452.183 217.233 460.488 213.883L461.868 206Z" fill="white"/>
</g>
<defs>
<linearGradient id="paint0_linear_3159_2" x1="2327.61" y1="94.2476" x2="2407.33" y2="127.129" gradientUnits="userSpaceOnUse">
<stop stop-color="white"/>
<stop offset="1" stop-color="white" stop-opacity="0.3"/>
</linearGradient>
<linearGradient id="paint1_linear_3159_2" x1="524.613" y1="157.248" x2="604.33" y2="190.129" gradientUnits="userSpaceOnUse">
<stop stop-color="white"/>
<stop offset="1" stop-color="white" stop-opacity="0.3"/>
</linearGradient>
<clipPath id="clip0_3159_2">
<rect width="2560" height="565.563" fill="white"/>
</clipPath>
</defs>
</svg>
